<svg width="195" height="337" viewBox="0 0 195 337" fill="none" xmlns="http://www.w3.org/2000/svg">
<rect width="195" height="337" fill="#E5E5E5"/>
<g id="cifra/6">
<path id="Vector 37" fill-rule="evenodd" clip-rule="evenodd" d="M81.4213 128.038L87.5243 98.0393C91.1647 91.2618 100.052 79.1066 106.476 84.7064C112.9 90.3062 119.86 95.9283 122.536 98.0393L128.639 107.372H176.5L160.439 46.0411C151.874 35.3747 133.522 15.7087 128.639 22.3751C122.536 30.7082 136.67 8.04218 93.6273 22.3751C59.1934 33.8415 57.2233 42.9301 60.5425 46.0411C53.9041 49.5966 39.4067 60.8407 34.5242 77.3734C29.6418 93.9062 21.1404 124.261 17.5 137.372V191.37V246.368C21.4616 259.145 30.4127 284.3 34.5242 282.7C38.6357 281.1 53.5829 302.033 60.5425 312.699C69.2153 316.255 87.9741 322.299 93.6273 318.033C100.694 312.699 126.391 306.7 143.415 298.366C157.035 291.7 163.866 271.367 165.579 262.034V223.702C167.292 212.147 169.69 188.237 165.579 185.037C161.467 181.837 160.439 160.371 160.439 150.038L143.415 137.372L112.579 128.038H81.4213ZM81.4213 191.37C71.6564 196.436 68.7869 219.036 68.5727 229.702L81.4213 246.368C85.49 251.59 96.197 260.568 106.476 254.701C116.755 248.835 114.827 231.591 112.579 223.702C112.579 212.925 111.358 190.103 106.476 185.037C100.373 178.704 93.6273 185.037 81.4213 191.37Z" fill="#0A0A0A" stroke="#0A0A0A" stroke-width="3"/>
</g>
</svg>
