<svg width="669" height="313" viewBox="0 0 669 313" fill="none" xmlns="http://www.w3.org/2000/svg">
<rect width="669" height="313" fill="#E5E5E5"/>
<g id="1 &#194;&#183; Men&#195;&#186; &#226;&#128;&#148; Espa&#195;&#177;ol by me">
<path d="M-1571 -130C-1571 -131.105 -1570.1 -132 -1569 -132H1411.92C1413.03 -132 1413.92 -131.105 1413.92 -130V2140.67C1413.92 2141.78 1413.03 2142.67 1411.92 2142.67H-1569C-1570.1 2142.67 -1571 2141.78 -1571 2140.67V-130Z" fill="#E60012"/>
<path d="M-1569 -132V-131H1411.92V-132V-133H-1569V-132ZM1413.92 -130H1412.92V2140.67H1413.92H1414.92V-130H1413.92ZM1411.92 2142.67V2141.67H-1569V2142.67V2143.67H1411.92V2142.67ZM-1571 2140.67H-1570V-130H-1571H-1572V2140.67H-1571ZM-1569 2142.67V2141.67C-1569.55 2141.67 -1570 2141.22 -1570 2140.67H-1571H-1572C-1572 2142.33 -1570.66 2143.67 -1569 2143.67V2142.67ZM1413.92 2140.67H1412.92C1412.92 2141.22 1412.47 2141.67 1411.92 2141.67V2142.67V2143.67C1413.58 2143.67 1414.92 2142.33 1414.92 2140.67H1413.92ZM1411.92 -132V-131C1412.47 -131 1412.92 -130.552 1412.92 -130H1413.92H1414.92C1414.92 -131.657 1413.58 -133 1411.92 -133V-132ZM-1569 -132V-133C-1570.66 -133 -1572 -131.657 -1572 -130H-1571H-1570C-1570 -130.552 -1569.55 -131 -1569 -131V-132Z" fill="black" fill-opacity="0.1"/>
<g id="menu/es/perfil/seleccionada">
<path id="P" d="M82.1257 29.2637C74.3536 29.5912 67.3216 29.2637 59.9196 29.2637C52.8877 29.5912 46.2258 29.2637 39.1939 29.5912C35.4929 29.5912 34.3826 31.2286 33.6424 34.5036C33.2723 42.6911 32.5321 50.2236 32.5321 58.0835L29.5712 145.853C28.831 162.883 28.4609 179.258 28.4609 195.96V224.453L26.6104 249.015C26.2403 255.565 26.6104 256.22 34.3826 256.548L150.224 259.823C155.036 259.823 160.957 260.478 165.769 260.478C170.21 260.478 171.32 259.495 171.69 255.565C171.69 244.43 172.431 233.623 172.431 222.488C172.431 220.523 171.69 218.558 169.47 217.248L167.619 215.283C163.548 212.335 163.178 212.008 164.658 207.423C167.989 201.855 171.32 195.633 173.911 189.738L175.761 180.568C176.872 175.656 176.872 170.088 177.242 164.848C177.612 160.918 176.872 156.988 174.651 153.058C172.801 150.438 171.32 146.836 171.32 143.233C167.989 127.841 169.1 112.776 179.833 99.6759C181.683 97.3834 182.053 95.4184 182.793 93.4534C184.274 75.7685 185.384 58.0835 186.494 40.0711C186.865 33.8486 185.014 31.5561 178.352 31.2286C173.911 30.2462 169.1 30.2462 164.658 29.5912C154.296 29.5912 144.673 30.5737 134.68 30.2462C116.915 29.2637 99.8906 28.6087 82.1257 29.2637ZM62.5103 34.5036C77.6845 34.8311 92.8587 35.4861 108.403 36.4686C113.584 36.4686 119.136 37.4511 123.947 37.7786C130.609 39.7436 136.901 42.0361 142.452 45.6386C147.264 48.9136 151.705 52.8436 154.296 58.0835C161.328 68.5635 164.658 80.0259 164.658 92.4709C165.399 103.606 164.658 115.068 161.328 126.203C159.477 136.356 154.296 145.526 146.894 152.731C139.862 158.953 131.719 163.211 121.727 164.193C114.695 165.831 108.403 165.831 101.001 166.158C96.9298 166.813 96.1896 166.813 95.8195 171.071L93.969 200.873C93.969 206.113 93.5989 211.353 93.5989 216.265C93.5989 217.575 92.8587 219.213 92.8587 220.523C92.4886 221.833 91.3783 223.47 89.8979 223.47C86.5669 223.47 83.6061 223.798 80.6453 223.47C69.5422 223.47 58.8093 222.815 48.0763 222.488C42.8949 221.833 41.7846 221.178 41.7846 216.593C41.7846 204.803 41.7846 192.03 42.5248 180.241C42.8949 163.866 44.0052 148.473 45.1155 132.426C45.8557 109.828 46.2258 87.2309 47.3361 64.6335L48.8165 39.0886C48.8165 35.4861 49.9268 34.5036 55.1083 34.5036C56.9588 33.8486 59.1794 34.5036 62.5103 34.5036ZM106.182 81.0084C100.631 79.6985 98.0401 81.6634 98.0401 85.9209L96.1896 117.688C96.1896 118.671 96.1896 118.998 96.9298 119.653C96.9298 121.618 98.4102 122.928 100.631 122.928C107.663 122.928 111.364 119.981 113.584 112.448C114.695 106.553 115.435 99.6759 114.325 92.4709C114.325 90.8334 113.584 88.8684 113.214 86.9034C112.104 83.9559 109.143 81.9909 106.182 81.0084ZM28.831 272.595C25.13 272.923 24.3898 273.905 24.0197 277.18C23.2795 280.128 22.9094 283.403 22.9094 287.005C22.5393 289.625 22.5393 292.245 22.5393 294.538C22.5393 296.83 24.0197 298.468 26.6104 298.795H31.4218C46.966 300.433 62.5103 301.743 77.3144 302.398L137.641 305.018C146.894 305.018 155.036 305.673 164.288 306C171.32 306 171.32 305.673 171.32 298.795V286.023C171.32 277.18 171.32 276.853 161.328 276.853L123.947 275.215C93.969 274.888 64.3608 273.578 34.3826 272.595H28.831Z" fill="#0A0A0A"/>
<path id="R" d="M255.851 104C250.005 104 250.553 104.197 250.553 109.907C250.553 110.892 250.553 111.877 250.918 112.861C251.101 113.255 251.466 114.043 252.014 114.436L255.485 115.421C258.226 116.602 260.601 118.769 262.245 121.722C264.072 125.661 264.985 129.599 265.351 133.734C265.351 137.869 265.533 142.004 265.533 146.14L267.36 229.04C267.36 231.009 267.36 232.978 266.995 235.145C266.995 236.326 266.447 237.114 265.351 237.114C262.793 237.311 260.053 237.704 257.678 237.704C255.303 238.098 254.937 238.689 254.572 241.249C254.024 250.11 253.111 248.732 261.331 249.125C275.581 249.716 290.013 250.11 304.263 250.11C312.483 250.504 311.387 251.095 311.753 242.233V241.643C311.753 240.264 311.387 239.674 309.926 239.674C308.464 239.28 307.003 239.28 305.541 238.886C304.08 238.886 302.801 238.689 301.157 238.689C298.234 238.098 296.407 236.129 295.859 232.585L294.946 225.693C294.946 218.407 294.58 210.333 294.398 202.851V187.688C294.398 185.325 294.946 184.735 297.321 184.735C301.522 184.735 305.907 185.719 309.743 188.082C311.022 188.673 312.483 190.051 313.762 191.43C317.051 194.974 319.608 199.306 320.522 204.426C321.618 209.743 322.348 215.256 323.445 220.967C324.358 225.693 325.637 231.009 327.098 236.129C329.108 242.233 332.944 247.156 338.79 249.519C345.732 252.276 353.04 252.276 360.347 251.685C361.261 251.685 362.174 251.095 362.174 249.716C362.539 247.55 362.539 245.187 362.539 242.824C362.539 241.84 362.174 241.249 361.261 240.855C360.53 240.658 359.982 240.658 359.434 240.264C356.693 239.674 354.867 237.704 353.953 235.145L353.04 230.812L351.213 219.588C350.299 213.287 349.021 207.38 346.646 201.472C343.54 193.399 338.79 187.098 331.665 183.159L324.723 179.418C324.358 179.024 323.993 178.827 323.993 178.236C323.993 178.236 324.358 177.449 324.723 177.449L329.108 175.677C334.04 173.707 338.425 170.951 342.627 167.012C346.098 164.059 348.838 160.12 350.847 155.591C356.145 144.564 354.318 127.039 342.079 117.587C339.886 116.012 337.511 114.436 335.319 113.255C330.569 110.892 325.637 109.317 320.522 108.135C314.128 106.56 307.368 105.969 300.792 105.575C285.629 104.985 270.831 104.591 255.851 104ZM298.417 116.012C303.349 116.406 307.916 118.178 312.301 120.738C318.147 123.888 322.348 129.008 323.81 136.294C325.271 142.595 325.271 149.29 323.445 155.985C322.348 159.53 320.156 163.271 316.503 166.422C315.224 167.012 313.214 168.588 310.657 169.572C306.455 171.541 301.522 172.329 296.772 172.329C294.58 172.329 293.849 171.541 293.849 168.982C293.484 167.997 293.484 167.012 293.484 165.831L292.571 119.753V118.178C292.571 116.602 293.484 116.012 294.946 116.012H298.417Z" fill="#0A0A0A"/>
<path id="L" d="M466.224 67.3166C464.389 67.5497 462.816 67.7496 460.757 68.2476C460.233 68.3142 460.046 68.8106 459.821 69.0755C459.186 70.1016 459.787 72.1521 461.436 72.4154C462.522 72.5137 463.608 72.612 464.657 72.4788C470.388 73.1686 474.061 76.0105 475.715 81.2361C476.279 83.0552 476.581 84.9075 476.882 86.7599C477.638 93.0449 478.057 98.9001 479.037 104.92C479.72 112.396 480.402 119.872 481.309 127.084C482.593 136.61 483.315 145.972 484.599 155.498C485.243 162.743 485.888 169.987 486.495 177L488.274 194.499L490.469 214.545C490.733 216.166 491.034 218.019 490.812 219.938C489.769 225.033 487.189 228.906 480.973 230.168C479.924 230.302 478.876 230.435 477.902 231.031C476.667 231.661 476.818 232.587 476.969 233.513C477.12 234.439 477.495 235.101 478.581 235.199C481.278 235.329 483.637 235.029 485.772 234.994C494.723 234.093 503.898 232.928 513.186 232.457C522.66 231.489 531.724 231.283 541.237 230.547C554.157 229.378 567.339 228.176 580.522 226.973C582.357 226.74 584.529 226.937 586.626 226.67C588.199 226.471 588.873 225.676 588.609 224.055C588.569 222.169 588.267 220.317 588.041 218.928C587.431 208.607 586.558 198.319 585.947 187.998C584.924 176.784 583.638 165.603 583.925 154.222C583.737 153.065 583.548 151.907 583.06 150.551C582.984 150.088 582.085 149.493 581.56 149.56C580.774 149.66 580.025 149.991 579.838 150.487C579.127 151.05 579.016 152.01 579.167 152.936C579.591 163.754 578.291 173.845 576.805 184.433C575.614 191.91 573.6 199.256 570.724 206.239C569.267 210.442 567.174 214.016 563.994 217.493C561.263 220.44 558.082 222.262 554.001 223.489C549.919 224.717 545.65 224.787 541.38 224.857C538.383 224.528 536.098 223.637 534.372 221.257C532.047 218.48 530.957 215.073 530.354 211.368L528.687 194.564C526.874 180.142 525.509 165.19 524.182 150.469L519.831 110.609L516.995 86.6262C516.543 83.8477 516.615 81.0026 516.762 78.6205C517.541 71.9041 520.346 67.7664 527.761 67.2969C528.809 67.1637 529.858 67.0304 530.869 66.6657C531.618 66.3342 532.291 65.5396 532.44 64.8117C533 63.3225 531.725 62.0665 529.853 62.0681C528.504 62.0031 526.931 62.2029 525.621 62.3695C519.254 62.7057 512.962 63.5051 506.933 64.2712C493.489 65.5068 479.969 66.2793 466.224 67.3166ZM456.827 104.906C456.789 104.675 457.276 104.377 456.676 103.98L456.827 104.906ZM457.279 107.685C457.653 106.692 457.502 105.766 456.827 104.906L457.279 107.685ZM456.947 112.217L458.357 134.017C457.984 135.01 458.21 136.399 458.361 137.326C458.512 138.252 458.438 139.443 459.6 140.004L459.786 139.508C460.3 129.517 459.427 119.229 458.03 109.007C457.955 108.544 457.393 108.379 457.279 107.685L456.947 112.217ZM459.796 147.778C459.833 148.01 459.571 148.043 459.571 148.043C459.085 148.341 459.684 148.738 459.722 148.969C459.684 148.738 459.871 148.242 459.871 148.242C460.095 147.977 459.833 148.01 459.796 147.778ZM460.438 153.369C460.476 153.6 459.952 153.667 459.952 153.667C460.216 155.288 460.18 156.71 460.182 158.364C460.597 160.911 460.149 163.095 461.613 165.509C462.32 161.638 462.09 156.94 460.438 153.369ZM461.875 165.476C461.577 166.932 461.092 168.884 461.731 171.166C463.387 178.046 464.069 185.522 465.276 192.931C465.615 195.015 465.655 196.901 467.156 199.546C467.23 198.355 467.641 197.594 467.565 197.131C467.224 193.393 466.883 189.655 466.28 185.95C464.924 179.268 463.606 172.819 462.475 165.872C462.437 165.641 461.913 165.707 461.875 165.476Z" fill="#0A0A0A"/>
<path id="F" d="M423.805 69.3116C414.185 68.6466 404.565 68.8683 395.451 71.7498C385.83 74.6313 378.995 80.1727 375.704 88.5957C373.679 93.2505 372.919 98.3486 372.666 103.668C372.666 105.442 372.919 107.215 371.906 108.766C370.894 110.54 368.109 109.21 366.084 109.875C365.577 109.875 365.324 110.54 364.565 110.761C364.311 116.746 364.311 122.731 364.058 129.159C364.058 129.38 364.058 130.045 364.311 130.267C364.565 130.932 365.324 131.597 366.084 131.819C367.856 132.705 370.387 131.819 371.147 133.592C371.906 135.144 371.4 136.917 371.906 138.69V142.902C371.147 202.749 370.894 226.244 370.387 240.652C370.387 242.425 371.147 244.642 369.375 245.75C368.362 246.415 366.084 246.193 364.565 246.637C364.058 246.637 363.046 247.302 362.539 247.967V250.848C363.046 251.513 364.058 252.178 364.565 251.957L367.856 250.405L388.362 239.544L393.425 237.106L398.742 234.446C397.729 235.997 396.21 237.106 394.438 238.214L376.97 249.518L383.299 247.745C403.805 237.327 427.603 226.688 442.539 210.285C434.438 215.162 426.084 219.595 418.236 224.249C416.21 225.358 414.185 226.244 412.413 227.131C411.4 227.574 410.387 226.909 410.387 226.023C410.387 224.693 409.881 223.363 409.881 222.033L410.387 143.788C410.387 141.128 410.641 138.468 410.641 135.809C411.147 134.035 411.653 133.592 413.679 133.37C416.21 133.37 418.995 133.592 421.273 133.37C424.311 133.37 425.577 133.149 425.577 130.045C425.83 124.282 425.83 118.519 425.83 112.535C425.83 111.648 425.071 110.761 423.805 110.761C421.02 110.761 417.982 110.761 415.198 110.54C412.16 110.096 411.4 109.653 411.4 106.772C411.4 105.663 411.4 104.555 411.653 103.225C412.666 98.1269 414.438 96.5753 420.767 95.467C421.273 95.2454 422.033 95.2454 422.792 95.2454C425.83 94.5804 426.59 93.9154 426.59 91.2556C426.843 84.8275 426.843 78.3995 427.096 71.9715C427.096 69.9766 426.084 69.3116 423.805 69.3116Z" fill="#0A0A0A"/>
<path id="m-i" d="M440.947 97.5159C440.454 103.454 439.961 109.391 439.468 115.612C440.454 116.46 441.44 117.591 442.18 118.439C446.369 121.832 450.806 122.398 454.995 121.267C461.403 118.722 463.621 112.219 463.375 107.129C462.636 94.1229 451.299 90.1645 444.398 94.9712L440.947 97.5159ZM443.165 126.922C442.672 126.922 441.933 127.204 441.933 127.77C442.18 128.053 442.672 128.335 442.672 128.053C442.919 128.053 443.165 127.77 443.412 127.487C443.412 127.204 443.165 126.922 443.165 126.922ZM439.961 140.776C439.222 140.776 438.236 141.059 437.497 141.342L436.511 150.39C439.468 151.803 440.947 154.065 441.194 157.458C441.194 158.589 441.44 160.003 441.44 161.417V174.989C441.44 186.016 441.687 196.76 441.687 207.788C441.933 212.877 441.933 217.684 441.933 222.773C441.687 226.732 440.947 230.407 437.004 232.387L436.265 232.952C435.032 233.8 434.539 234.649 434.539 236.062C434.539 241.435 435.279 241.717 439.468 242H441.933C450.066 242 457.953 242 465.84 241.717H468.551C471.755 241.435 472.494 240.586 472.494 237.476C472.74 234.931 472.001 232.952 469.783 232.387L469.044 231.821C466.579 230.407 465.347 228.428 465.1 225.318C465.1 223.621 464.854 221.642 464.854 219.663C464.607 202.698 464.607 186.016 464.361 169.334V162.265H464.854C465.1 162.265 465.84 162.265 465.84 161.7L464.361 161.417V152.934C464.361 150.107 464.114 147.279 464.114 144.452C464.114 138.514 463.621 137.949 457.953 138.797L439.961 140.776ZM461.157 161.7C460.418 161.982 459.925 161.982 458.692 161.7C459.678 160.851 460.418 160.851 461.157 161.7Z" fill="#0A0A0A"/>
<path id="m-e" d="M250.979 107.026C246.76 106.431 242.8 106.032 240.565 108.915C238.818 111.77 236.406 112.336 233.718 112.496L171.144 116.221C160.878 116.832 150.091 117.051 139.22 119.39C141.42 119.259 143.407 119.564 145.363 119.448L187.649 116.931C205.492 115.869 223.304 114.386 241.391 113.309C246.524 113.004 248.792 110.541 250.979 107.026ZM201.743 147.191C200.097 148.135 199.167 148.825 197.488 149.348C194.391 150.591 194.896 150.772 191.03 154.81C181.094 166.191 178.164 179.271 178.23 193.018C178.622 207.804 184.001 220.389 196.325 230.656L196.878 231.469L196.389 231.499C201.895 232.863 206.716 234.904 211.717 236.087C230.956 240.442 250.533 233.142 258.809 219.321C260.131 217.338 261.161 214.738 261.733 212.589C262.174 211.928 260.871 210.947 260.09 210.359C259.569 209.967 258.102 210.054 257.646 210.505L248.984 219.271C241.725 227.108 221.942 228.497 213.417 216.522C207.689 209.035 206.313 200.655 205.899 192.006C205.674 189.057 208.659 186.341 211.836 186.152C221.157 186.02 230.461 185.678 239.325 185.997C245.239 186.279 250.893 186.366 256.94 185.16C259.368 184.804 261.195 183.002 261.279 180.882C261.758 174.295 260.054 168.05 257.845 161.623C255.424 155.632 251.111 150.599 244.547 148.24C230.866 142.707 216.236 140.828 201.255 147.22L201.743 147.191ZM214.379 155.113C218.033 151.51 224.957 152.156 228.228 156.404C231.823 161.691 233.006 167.544 232.266 173.935C232.102 175.002 230.487 176.368 229.297 176.862C222.55 178.533 215.738 179.361 208.962 177.437C207.952 177.074 207.659 176.457 206.617 175.673C207.338 172.245 207.261 168.019 208.715 164.547C209.696 161.315 211.915 158.221 214.379 155.113Z" fill="#0A0A0A"/>
</g>
</g>
</svg>
