<svg width="935" height="300" viewBox="0 0 935 300" fill="none" xmlns="http://www.w3.org/2000/svg">
<rect width="935" height="300" fill="#E5E5E5"/>
<g id="2 &#194;&#183; Men&#195;&#186; &#226;&#128;&#148; Ingl&#195;&#169;s by me">
<path d="M-1174.82 -1420.35C-1174.82 -1421.45 -1173.93 -1422.35 -1172.82 -1422.35H1012.82C1013.93 -1422.35 1014.82 -1421.45 1014.82 -1420.35V388C1014.82 389.105 1013.93 390 1012.82 390H-1172.82C-1173.93 390 -1174.82 389.105 -1174.82 388V-1420.35Z" fill="#E60012"/>
<path d="M-1172.82 -1422.35V-1421.35H1012.82V-1422.35V-1423.35H-1172.82V-1422.35ZM1014.82 -1420.35H1013.82V388H1014.82H1015.82V-1420.35H1014.82ZM1012.82 390V389H-1172.82V390V391H1012.82V390ZM-1174.82 388H-1173.82V-1420.35H-1174.82H-1175.82V388H-1174.82ZM-1172.82 390V389C-1173.38 389 -1173.82 388.552 -1173.82 388H-1174.82H-1175.82C-1175.82 389.657 -1174.48 391 -1172.82 391V390ZM1014.82 388H1013.82C1013.82 388.552 1013.38 389 1012.82 389V390V391C1014.48 391 1015.82 389.657 1015.82 388H1014.82ZM1012.82 -1422.35V-1421.35C1013.38 -1421.35 1013.82 -1420.9 1013.82 -1420.35H1014.82H1015.82C1015.82 -1422.01 1014.48 -1423.35 1012.82 -1423.35V-1422.35ZM-1172.82 -1422.35V-1423.35C-1174.48 -1423.35 -1175.82 -1422.01 -1175.82 -1420.35H-1174.82H-1173.82C-1173.82 -1420.9 -1173.38 -1421.35 -1172.82 -1421.35V-1422.35Z" fill="black" fill-opacity="0.1"/>
<g id="menu/en/request/seleccionada">
<path id="R" d="M49.3621 20C39.0581 20 40.0241 20.322 40.0241 29.66C40.0241 31.27 40.0241 32.88 40.6681 34.49C40.9901 35.134 41.6341 36.422 42.6001 37.066L48.7181 38.676C53.5481 40.608 57.7341 44.15 60.6321 48.98C63.8521 55.42 65.4621 61.86 66.1061 68.622C66.1061 75.384 66.4281 82.146 66.4281 88.908L69.6481 224.47C69.6481 227.69 69.6481 230.91 69.0041 234.452C69.0041 236.384 68.0381 237.672 66.1061 237.672C61.5981 237.994 56.7681 238.638 52.5821 238.638C48.3961 239.282 47.7521 240.248 47.1081 244.434C46.1421 258.924 44.5321 256.67 59.0221 257.314C84.1381 258.28 109.576 258.924 134.692 258.924C149.182 259.568 147.25 260.534 147.894 246.044V245.078C147.894 242.824 147.25 241.858 144.674 241.858C142.098 241.214 139.522 241.214 136.946 240.57C134.37 240.57 132.116 240.248 129.218 240.248C124.066 239.282 120.846 236.062 119.88 230.266L118.27 218.996C118.27 207.082 117.626 193.88 117.304 181.644V156.85C117.304 152.986 118.27 152.02 122.456 152.02C129.862 152.02 137.59 153.63 144.352 157.494C146.606 158.46 149.182 160.714 151.436 162.968C157.232 168.764 161.74 175.848 163.35 184.22C165.282 192.914 166.57 201.93 168.502 211.268C170.112 218.996 172.366 227.69 174.942 236.062C178.484 246.044 185.246 254.094 195.55 257.958C207.786 262.466 220.666 262.466 233.546 261.5C235.156 261.5 236.766 260.534 236.766 258.28C237.41 254.738 237.41 250.874 237.41 247.01C237.41 245.4 236.766 244.434 235.156 243.79C233.868 243.468 232.902 243.468 231.936 242.824C227.106 241.858 223.886 238.638 222.276 234.452L220.666 227.368L217.446 209.014C215.836 198.71 213.582 189.05 209.396 179.39C203.922 166.188 195.55 155.884 182.992 149.444L170.756 143.326C170.112 142.682 169.468 142.36 169.468 141.394C169.468 141.394 170.112 140.106 170.756 140.106L178.484 137.208C187.178 133.988 194.906 129.48 202.312 123.04C208.43 118.21 213.26 111.77 216.802 104.364C226.14 86.332 222.92 57.674 201.346 42.218C197.482 39.642 193.296 37.066 189.432 35.134C181.06 31.27 172.366 28.694 163.35 26.762C152.08 24.186 140.166 23.22 128.574 22.576C101.848 21.61 75.7661 20.966 49.3621 20ZM124.388 39.642C133.082 40.286 141.132 43.184 148.86 47.37C159.164 52.522 166.57 60.894 169.146 72.808C171.722 83.112 171.722 94.06 168.502 105.008C166.57 110.804 162.706 116.922 156.266 122.074C154.012 123.04 150.47 125.616 145.962 127.226C138.556 130.446 129.862 131.734 121.49 131.734C117.626 131.734 116.338 130.446 116.338 126.26C115.694 124.65 115.694 123.04 115.694 121.108L114.084 45.76V43.184C114.084 40.608 115.694 39.642 118.27 39.642H124.388Z" fill="#0A0A0A"/>
<path id="Q" d="M387.49 85.6509C386.318 92.007 386.969 98.3632 387.49 104.719V85.6509ZM327.87 98.3632C318.627 111.782 314.201 129.202 312.639 149.919C312.118 157.687 312.118 165.927 312.249 173.931C312.899 195.824 316.154 215.834 323.964 233.49C330.733 248.792 339.716 256.325 350.52 255.619C351.952 255.619 353.514 254.913 354.816 254.207C358.982 252.794 358.982 252.794 360.153 259.386C360.153 260.563 360.283 261.505 360.544 262.211C361.325 265.036 361.845 268.096 362.757 270.686C366.141 279.396 371.348 282.692 377.076 279.396C383.455 275.629 387.36 261.269 387.75 253.03C387.88 249.263 386.188 247.851 384.626 246.438C383.455 245.026 382.673 246.673 381.892 248.086C381.502 249.263 380.851 249.969 380.33 250.676C377.987 254.207 375.253 254.207 373.171 250.205C372.129 248.557 371.348 246.438 370.567 244.555C369.786 242.907 370.046 241.024 370.567 239.376C370.958 238.199 371.609 237.257 371.999 236.551C377.466 225.015 380.46 211.597 381.892 196.53C383.455 179.816 383.194 163.808 381.242 147.329C380.33 141.208 379.549 135.558 378.378 129.909C375.904 117.667 371.348 107.78 365.881 99.7757C354.035 81.8843 338.284 82.8259 327.87 98.3632ZM354.295 108.251C355.857 113.194 357.029 117.667 357.81 122.846C359.502 136.971 360.934 151.096 361.325 165.456C361.845 176.52 362.106 187.349 362.236 198.178C362.366 202.18 362.236 206.182 361.715 211.597C360.674 209.007 360.153 208.066 359.763 206.653C358.2 203.593 356.638 200.768 354.425 198.649C349.349 192.999 341.798 194.647 338.153 205.241C337.503 206.653 336.982 208.066 336.201 210.42C335.81 207.595 335.42 205.947 335.159 204.299C333.858 183.112 332.426 161.689 333.077 140.267C333.207 134.146 333.597 128.261 333.858 122.14C334.248 117.667 335.029 113.9 336.201 109.898C340.106 96.4799 350.781 97.657 354.295 108.251ZM387.75 111.782C387.49 111.782 387.36 112.017 387.36 112.017C387.099 112.723 387.099 113.43 387.099 113.9C387.36 117.667 387.36 121.434 387.36 124.965C387.36 125.436 387.49 125.436 387.49 125.671C387.49 125.671 387.49 125.436 387.88 125.436C387.75 120.727 387.75 116.255 387.75 111.782ZM387.88 136.265V132.734H387.75C387.75 133.911 387.49 134.852 387.49 136.265H387.88ZM387.88 143.327C387.88 144.504 387.75 144.74 387.75 145.446L388.271 164.043C388.531 171.812 388.662 179.816 389.052 188.056C389.052 188.997 389.312 189.704 389.443 190.881V182.641C389.443 173.225 389.312 163.808 389.052 154.627C388.922 151.096 388.662 147.329 387.88 143.327ZM389.443 190.881C389.443 191.822 389.312 192.999 389.312 193.941V196.766C389.703 195.118 389.833 192.999 389.443 190.881ZM389.703 202.416C389.703 202.887 389.443 203.122 389.443 203.593V205.712H389.833V203.593C389.833 203.122 389.833 202.887 389.703 202.416ZM350.52 210.891C351.952 212.303 352.863 213.716 353.644 216.07C354.295 217.482 354.686 218.659 354.816 220.072C355.467 222.426 355.857 225.015 355.988 226.428C356.378 228.547 356.378 229.253 356.638 229.959C357.159 236.08 356.638 238.199 353.124 240.788C350.911 242.201 348.958 242.907 346.615 241.73C344.532 241.024 342.84 238.905 341.798 235.138C340.236 229.959 339.846 224.309 340.887 218.188C342.189 210.42 346.485 207.359 350.52 210.891ZM389.833 211.126C389.443 216.07 389.703 220.072 390.484 223.603C390.614 220.072 390.224 216.07 389.833 211.126ZM390.484 223.603C390.224 227.134 390.224 230.665 390.224 234.197C390.224 239.376 390.484 244.555 390.614 250.205C390.875 254.442 391.005 259.15 391.395 263.623C391.395 264.329 391.656 265.036 391.786 265.977C392.046 265.036 392.176 264.565 392.176 264.094L391.395 254.207C391.395 247.851 391.265 241.494 391.265 234.903C391.005 231.372 391.265 227.37 390.484 223.603Z" fill="#0A0A0A"/>
<path id="U" d="M418.876 109.764C418.113 109.575 417.732 109.575 416.969 110.14L414.108 112.589C414.68 113.155 416.015 112.966 415.443 114.285C415.443 114.285 415.825 114.473 416.015 114.473C416.778 114.285 419.258 111.459 419.639 110.706C419.639 110.517 419.448 109.764 418.876 109.764ZM429.365 110.517C428.602 110.517 428.03 110.894 427.458 110.894C426.695 110.894 426.314 110.517 425.742 110.706C425.742 110.706 425.742 111.082 425.36 111.271C425.932 111.647 426.695 112.401 427.649 112.213C428.221 112.213 428.984 111.647 429.365 110.517ZM412.964 112.401C412.773 112.401 412.964 112.589 412.583 112.966C413.345 112.966 413.727 112.966 414.108 112.589L412.964 112.401ZM407.243 114.85C406.48 115.039 405.908 115.415 405.145 115.415C403.047 115.792 401.33 115.604 399.233 115.415C395.991 115.415 395.609 115.415 395.418 118.618C395.037 121.444 394.846 124.081 394.846 126.907C394.656 131.24 394.656 135.573 394.465 139.906C394.465 140.471 394.465 141.037 394.846 141.79L400.568 142.167C401.521 142.355 401.903 142.92 401.903 143.674C401.903 144.239 401.712 144.804 401.712 144.993C401.521 152.717 401.14 160.441 401.14 167.977C400.949 170.991 400.949 173.817 400.568 177.019C400.186 180.599 400.186 184.367 400.377 188.323L400.568 190.395C399.614 198.496 399.423 206.974 399.805 215.451C399.996 219.219 400.758 222.798 402.093 226.378C403.047 229.392 404.191 232.406 406.48 235.232C409.722 239.377 413.918 243.145 419.258 245.029C424.216 247.289 429.556 248.608 434.705 249.362C436.231 249.55 437.566 249.738 438.901 250.492C440.045 251.057 440.999 251.057 441.952 251.057C446.53 250.304 446.53 250.304 451.297 251.434C451.297 251.622 451.869 251.434 451.869 251.246C453.014 250.304 454.158 250.492 455.493 250.492C459.689 250.115 463.884 249.362 468.08 248.42C471.894 247.666 475.136 246.347 478.76 244.463C484.481 241.826 488.486 237.305 491.156 231.653C493.254 227.885 494.398 223.74 494.971 219.407C495.543 214.509 495.924 209.423 496.115 204.336C496.115 197.554 496.878 190.772 497.45 183.801C497.45 183.613 498.022 183.613 498.213 183.425C497.831 182.671 497.259 181.917 497.45 180.787L497.259 177.773C497.45 175.701 497.45 173.628 497.45 171.556C497.45 170.237 497.45 168.918 497.45 167.788C497.831 164.585 498.213 161.194 498.213 157.803C498.594 154.978 498.403 152.152 498.403 149.326C498.594 148.384 498.403 147.065 499.166 145.935C500.501 145.935 501.836 145.558 503.171 146.123C504.506 146.877 506.223 145.558 506.604 144.428C506.795 143.486 506.604 142.732 506.604 141.978L507.176 123.139C507.176 119.56 507.176 119.56 503.171 119.183C498.785 118.995 494.589 118.806 490.203 118.618C486.579 118.618 482.574 118.241 478.951 118.241C474.183 118.43 469.606 118.053 465.029 117.676L457.209 117.299C456.447 117.299 455.684 118.053 455.684 118.806C455.684 120.502 455.302 122.386 455.493 124.081L455.302 135.95C455.493 137.834 455.302 139.341 455.493 141.037C455.493 141.602 455.684 142.355 456.065 142.92C457.209 142.92 458.354 143.486 459.689 143.486C464.266 143.109 463.503 143.862 463.503 147.819L463.694 149.137L462.931 161.948L462.359 179.092C461.977 180.787 461.405 181.917 460.642 183.425C460.07 183.99 459.307 183.425 459.307 184.555C461.596 186.062 461.977 186.627 461.787 189.453V190.018C461.787 194.54 461.596 199.061 461.405 203.394C461.405 207.35 461.214 210.93 460.452 214.509C459.498 218.089 455.302 221.668 452.06 222.045L447.483 222.422C446.911 222.422 445.957 222.233 445.767 221.668C445.195 220.349 444.432 220.349 443.287 221.103H442.334L442.143 220.349C442.525 219.596 442.906 218.465 444.241 218.277L444.432 217.712L443.86 217.335L441.38 217.523C440.808 217.523 440.236 217.712 439.473 217.9C438.52 218.089 437.757 217.712 437.185 216.582C437.185 216.393 436.994 215.828 436.612 215.263C436.231 213.567 436.04 212.06 435.85 210.365C435.087 204.336 435.659 198.119 435.85 192.279C435.85 190.772 435.85 189.265 436.231 187.569C436.422 186.627 437.185 185.685 436.994 184.367C436.994 183.236 436.612 182.106 436.422 180.976L436.803 172.875C436.803 170.991 436.612 168.918 436.612 167.223C436.612 162.325 436.994 157.427 437.185 152.528C437.375 149.703 437.566 147.065 437.757 144.239C437.757 143.297 438.52 142.544 439.664 142.544C441.38 142.92 442.906 142.732 444.622 142.92C445.767 142.732 446.339 142.167 446.53 141.037C446.72 136.892 446.911 132.559 447.102 128.414C447.483 128.038 447.483 127.661 447.483 127.284C446.911 125.212 447.292 122.951 447.292 120.879L447.102 118.053C447.102 117.864 446.53 117.299 446.148 117.111H445.004L428.602 116.546L418.113 116.357C416.397 116.357 414.68 116.169 413.345 115.792C412.583 115.792 411.82 115.415 411.438 115.039C410.103 114.097 408.578 114.097 407.243 114.85ZM452.632 123.893C452.442 123.893 451.679 124.081 451.679 124.27C451.107 124.835 450.916 125.588 450.534 126.154C450.725 126.719 451.107 126.907 451.107 127.096C451.107 127.472 451.297 127.661 451.488 127.661C451.869 127.661 452.06 127.472 452.442 127.096C452.442 126.154 453.014 125.4 453.204 124.458L452.632 123.893ZM449.581 129.168C449.009 129.168 448.437 129.733 448.627 130.487C448.818 130.487 448.818 130.863 449.199 130.675C449.962 130.675 450.153 130.298 449.962 129.921C449.962 129.733 449.581 129.168 449.581 129.168ZM456.828 182.859C455.684 183.99 455.302 184.367 454.158 185.12L456.256 185.874C457.019 185.874 457.4 185.497 457.019 184.743C457.019 184.178 456.828 183.613 456.828 182.859ZM449.009 183.99C447.864 184.743 446.911 185.12 445.385 184.932C445.385 184.932 445.385 185.309 445.195 185.497C447.864 185.874 447.864 185.874 450.725 184.932C449.962 183.801 449.772 183.425 449.009 183.99ZM451.107 185.12L451.488 185.685C451.488 185.874 451.679 185.874 451.679 185.874C452.06 185.874 452.06 185.685 452.06 185.685C452.06 185.685 452.06 185.309 451.488 185.12H451.107ZM498.213 183.425C499.166 183.236 500.12 184.178 500.692 183.236L498.213 183.425ZM396.181 196.612C396.181 196.989 396.372 196.989 396.372 197.177C396.563 197.177 396.944 196.989 396.944 196.989C396.944 196.612 396.563 196.424 396.563 196.047L396.181 196.612ZM393.511 197.554L392.939 197.177C392.748 197.177 392.367 197.366 392.367 197.366C392.176 197.554 392.176 198.119 392.176 198.308L392.367 198.873C392.939 198.873 393.511 198.684 393.702 198.308L393.511 197.554ZM409.34 248.608C409.15 248.608 408.959 248.608 408.578 248.985C408.768 249.173 408.768 249.362 409.15 249.362C409.34 249.362 409.531 249.173 409.913 249.173C409.722 248.985 409.34 248.608 409.34 248.608ZM402.856 249.738C403.619 250.68 403.619 250.68 405.717 250.304L402.856 249.738ZM409.531 250.68C409.34 250.68 409.34 250.869 409.34 250.869C409.34 251.246 409.531 251.246 409.531 251.246C410.103 251.246 410.103 250.869 410.103 250.869C409.913 250.869 409.531 250.869 409.531 250.68ZM487.724 247.855C488.486 248.231 488.486 248.231 489.249 247.855C488.677 248.043 488.296 248.043 487.724 247.855ZM413.727 255.39C413.345 255.39 412.583 255.202 412.583 255.955L431.272 256.521L427.458 255.579C425.36 255.579 423.453 254.825 421.546 255.013L413.727 255.39ZM458.544 254.071C456.447 253.883 454.349 254.26 452.442 254.26C453.967 254.637 455.493 254.637 457.019 254.637C460.07 255.013 462.931 255.579 465.982 255.579L473.229 255.955C473.039 255.767 472.848 255.39 472.466 255.39C470.178 255.39 467.889 254.26 465.601 254.448C463.312 254.448 460.833 254.448 458.544 254.071ZM443.287 256.709C442.715 256.709 442.334 256.897 442.143 256.897V257.274H444.05C443.669 256.897 443.478 256.709 443.287 256.709ZM473.229 255.955C474.374 255.955 475.327 256.521 476.471 255.767L473.229 255.955ZM490.203 257.274C491.156 257.274 491.919 257.274 492.682 257.651C491.919 257.274 491.538 256.897 490.203 257.274Z" fill="#0A0A0A"/>
<path id="S" d="M661.786 64.6509C656.496 64.6509 650.976 64.8809 645.226 64.8809C640.626 65.3409 636.026 65.8009 631.196 66.9509C627.286 67.4109 622.686 69.0209 618.546 69.9409C618.316 69.9409 617.856 70.4009 617.626 70.4009C615.326 72.0109 613.256 73.1609 610.956 74.7709C606.816 77.3009 604.056 80.7509 601.066 83.9709C599.456 86.2709 597.846 88.5709 596.926 90.6409C596.006 92.7109 595.086 94.5509 594.856 96.3909C593.706 98.2309 592.786 100.761 592.786 103.061C592.786 110.191 592.786 117.321 594.166 124.451C595.086 131.581 597.386 138.711 601.986 144.691C604.516 148.141 607.736 151.131 611.646 153.661C619.006 158.491 627.286 161.251 635.336 164.011L647.526 168.151C649.136 168.841 650.286 169.531 651.666 170.451C654.426 172.751 656.726 174.821 659.256 177.121C661.556 178.961 662.706 181.491 663.626 184.021C664.086 186.321 664.776 188.621 665.006 191.151C666.156 197.131 666.156 202.881 664.086 208.631C662.476 213.691 659.256 217.141 654.196 218.981C649.826 220.361 645.226 220.361 640.856 219.441C639.476 219.441 637.866 218.751 636.716 218.061C633.496 216.221 630.736 213.691 628.666 210.471C626.826 207.251 624.526 203.801 624.066 199.661L620.846 183.561L619.926 179.421C619.466 178.961 619.006 178.731 618.546 178.501C617.856 178.041 616.936 178.501 616.476 178.501C611.646 178.961 607.046 178.961 602.676 179.651C602.446 179.651 601.986 179.651 601.986 179.881C601.526 179.881 601.066 180.571 601.066 181.261C601.066 181.951 601.526 182.641 601.526 183.101L603.136 197.361L604.516 214.611C605.206 218.981 605.666 223.121 605.896 227.261C605.896 228.871 606.126 230.481 606.586 231.861C606.816 233.701 607.506 234.391 609.346 233.931C610.726 233.701 611.876 233.701 613.256 233.701C619.466 232.781 625.906 231.861 632.576 232.091C633.496 232.091 634.876 232.321 635.796 232.321C637.636 232.091 639.936 232.321 641.776 231.861C645.226 231.401 649.136 230.481 652.816 229.561L669.146 226.801L680.646 225.191C681.796 224.731 683.176 224.271 684.326 223.581C688.236 220.361 692.376 217.141 694.906 213.001C698.126 208.861 700.196 204.491 700.196 198.971C700.196 195.981 700.196 192.761 700.656 189.541C700.886 183.561 700.886 177.121 700.886 171.141C700.886 164.701 699.046 159.411 694.906 154.581C692.606 151.361 690.076 148.831 687.546 146.071C686.626 145.381 685.246 144.461 684.326 143.541L679.266 141.011C676.506 139.631 673.976 138.251 670.986 137.101C667.536 135.721 664.086 134.341 659.946 133.191C658.566 132.731 657.416 131.581 656.726 130.431C653.276 131.121 650.286 129.741 647.526 128.591C646.606 127.901 645.226 127.441 644.306 126.981C640.626 124.911 637.636 122.381 634.876 119.621C633.266 117.781 632.346 115.481 630.736 113.641C629.126 110.651 628.436 107.891 628.206 104.671C627.746 100.761 628.206 97.0809 628.436 93.6309C629.816 87.4209 633.266 83.0509 638.556 80.2909C642.006 78.6809 645.686 77.9909 649.826 77.9909C653.276 77.9909 656.496 79.1409 659.026 81.9009C662.246 84.4309 664.776 88.1109 666.156 92.2509C668.226 97.0809 669.376 102.371 670.296 107.431C670.756 109.041 670.986 110.421 671.446 112.261C672.366 112.721 672.596 112.721 672.826 112.721C676.736 112.721 680.876 112.721 685.016 112.261C685.706 112.261 686.396 112.031 687.316 111.571C688.466 111.111 689.386 110.191 689.156 108.581C688.926 106.971 688.236 105.361 688.236 103.751C687.546 100.301 687.316 96.6209 686.856 93.6309C686.396 89.9509 685.246 86.5009 685.936 83.7409C687.546 79.8309 684.786 77.0709 685.246 73.6209V71.5509C685.246 71.3209 685.246 70.6309 685.016 69.9409C685.016 69.4809 684.326 68.7909 683.406 68.1009C683.176 68.1009 682.716 67.8709 682.716 67.8709C679.266 66.9509 675.816 66.9509 672.826 64.8809H672.366C668.916 65.3409 665.236 64.6509 661.786 64.6509ZM695.136 81.2109C695.596 81.9009 695.596 82.1309 695.826 82.3609C695.826 82.8209 696.516 82.8209 696.746 82.8209C696.976 82.8209 696.976 81.9009 696.746 81.9009C696.516 81.4409 695.826 81.4409 695.136 81.2109ZM583.356 87.8809C583.356 87.8809 583.356 87.8809 582.896 87.8809L582.666 88.1109C582.436 89.7209 581.976 91.3309 582.436 93.6309H582.666C582.896 93.6309 583.356 93.6309 583.356 93.6309C583.586 91.5609 584.046 89.7209 583.356 87.8809ZM698.586 90.4109C698.356 90.4109 698.126 89.9509 697.666 90.4109C697.436 90.4109 697.436 91.1009 698.126 91.3309H699.046C699.046 91.1009 698.586 90.6409 698.586 90.4109ZM568.636 115.251C568.406 115.251 568.176 115.481 568.176 115.481C568.406 115.711 568.636 115.481 569.096 115.481C568.636 115.481 568.636 115.251 568.636 115.251ZM582.666 117.781V119.391C582.896 118.931 583.356 118.701 583.356 118.241L582.666 117.781ZM582.896 119.391C582.666 119.621 582.666 119.851 582.666 120.311C582.666 120.541 582.666 120.541 582.896 120.771C582.896 120.541 583.356 120.311 583.356 120.311C583.356 119.621 582.896 119.621 582.896 119.391ZM583.356 128.131L582.896 128.591L583.586 131.351C584.506 130.661 584.276 129.051 583.356 128.131ZM584.276 137.101C584.276 137.331 584.046 137.791 584.046 137.791C584.046 138.941 584.276 140.321 584.276 141.241C585.196 140.551 585.656 139.401 585.196 138.021C585.196 137.791 584.506 137.331 584.276 137.101ZM584.276 141.241C584.276 142.851 584.506 144.001 584.506 145.381C584.506 145.611 585.196 145.611 585.196 146.071C585.656 143.081 585.656 143.081 584.276 141.241ZM585.656 149.521C585.656 153.201 585.886 154.581 587.726 157.111C588.416 153.891 586.806 151.821 585.656 149.521ZM589.106 166.541L589.566 167.921C589.566 167.921 590.026 168.151 590.026 168.611C590.716 167.691 590.716 167.001 590.256 166.081C590.256 164.701 589.566 163.091 588.186 161.481L589.106 166.541ZM590.256 170.451C590.256 170.451 590.716 170.221 590.716 169.761C590.256 169.531 590.256 169.071 590.256 168.611V170.451ZM592.556 190.691C592.556 195.981 593.476 201.041 594.856 205.641C595.086 206.791 595.316 207.251 595.776 207.711C595.776 204.031 595.316 200.351 595.086 196.441C594.856 194.831 594.396 193.221 593.706 191.381C593.476 191.151 593.246 191.151 592.556 190.691ZM595.776 207.711C595.086 208.631 595.086 209.551 595.086 210.471C595.086 211.391 595.316 212.311 595.316 213.001C596.696 212.081 596.696 210.701 596.236 209.551C596.006 208.861 595.776 208.171 595.776 207.711ZM596.236 216.451H596.926C596.926 215.991 597.386 215.301 597.386 214.611C597.386 213.461 596.236 213.001 595.316 213.001L596.236 216.451Z" fill="#0A0A0A"/>
<path id="T" d="M761.023 33.061L740.588 34.5649C729.099 35.123 718.076 35.8979 706.581 36.2261L700.833 36.3902C698.311 36.6924 694.862 36.7908 691.637 36.6528L690.718 36.6791C690.034 36.9287 689.581 37.1717 689.601 37.8614L689.975 50.9661L690.389 57.3969C690.448 59.4661 690.513 61.7651 690.816 64.2875C691.361 67.2632 690.901 67.2763 693.66 67.1975L696.419 67.1188C700.32 66.7773 704.459 66.6591 708.597 66.5409C709.274 66.0614 710.206 66.495 710.666 66.4819C711.126 66.4687 711.363 66.6921 711.612 67.3752C711.645 68.5248 711.658 68.9846 712.157 70.3509C712.426 79.777 712.925 89.1966 713.418 98.3863C714.081 105.5 714.285 112.627 714.705 119.288C714.935 127.335 715.388 135.145 716.084 143.409C716.511 150.299 716.714 157.426 717.148 164.547C717.384 172.823 717.85 181.094 718.56 189.817L718.822 199.013C718.855 200.163 719.098 200.616 720.707 200.57L730.133 200.301C737.477 199.631 744.604 199.427 751.725 198.994L753.564 198.941C754.017 198.698 754.464 198.226 754.458 197.996L754.116 186.04C753.716 180.069 753.328 174.558 753.158 168.581C752.553 163.536 752.396 158.018 752.021 152.967C751.831 146.3 751.424 140.099 751.247 133.891L751.096 128.603L749.572 107.478L749.27 96.9025C748.64 90.938 748.482 85.4203 748.082 79.4493C747.97 75.5409 747.622 71.4091 747.51 67.5007L747.438 64.9718C747.432 64.7419 747.655 64.5054 748.331 64.0259L749.711 63.9865C754.992 63.6056 759.59 63.4743 764.872 63.0934L766.941 63.0344C767.401 63.0212 767.841 62.3184 767.828 61.8586L767.755 59.3296C767.105 52.6754 766.902 45.5483 766.475 38.6577L766.344 34.0596C766.33 33.5998 766.081 32.9166 765.391 32.9363L761.023 33.061ZM766.56 73.8596C768.346 71.9679 767.368 69.925 767.309 67.8558L766.56 73.8596ZM771.979 86.3601L771.506 85.9134L771.762 86.8265L771.979 86.3601ZM772.852 92.7778L772.589 91.6348C772.143 92.1077 771.913 92.1143 771.919 92.3442C771.926 92.5741 771.932 92.804 772.162 92.7975L772.852 92.7778ZM772.372 100.154C773.87 104.253 773.279 107.722 776.543 109.239C775.538 106.277 776.143 103.268 772.372 100.154ZM776.557 109.699C776.596 111.078 775.479 112.261 777.161 114.744C776.629 112.228 776.596 111.078 776.557 109.699ZM776.931 122.804C776.064 124.669 775.426 126.528 776.865 128.558C777.528 127.618 777.732 126.692 777.706 125.773C777.909 124.846 778.566 123.677 776.931 122.804ZM777.732 134.746C776.287 140.539 775.479 144.474 776.057 148.599C776.759 157.092 775.859 165.862 775.182 174.394C775.189 174.624 775.885 174.835 775.905 175.524C778.618 157.73 779.045 148.514 777.732 134.746ZM683.306 139.743C683.306 139.743 682.623 139.992 682.17 140.235C682.636 140.452 682.886 141.135 683.352 141.352L684.272 141.326C684.029 140.872 684.009 140.183 683.306 139.743ZM776.128 183.341C775.563 187.729 774.749 191.434 774.63 195.349C774.735 199.027 772.075 202.555 774.039 206.87C776.036 204.282 775.031 201.32 775.195 199.014C775.806 196.236 775.957 193.47 776.332 190.468C776.496 188.163 777.363 186.297 776.128 183.341ZM715.715 194.96C715.952 195.183 715.958 195.413 715.958 195.413L717.554 194.908C717.548 194.678 717.075 194.231 717.075 194.231L715.715 194.96Z" fill="#0A0A0A"/>
<path id="m-e" d="M290.831 101.362C287.214 100.532 283.81 99.9091 281.683 102.607C279.981 105.305 277.853 105.72 275.513 105.72H221.047C212.112 105.72 202.75 105.305 193.176 106.965C195.091 106.965 196.793 107.38 198.495 107.38H235.302C250.833 107.38 266.364 106.965 282.108 106.965C286.576 106.965 288.704 104.682 290.831 101.362ZM245.514 137.888C244.025 138.718 243.174 139.341 241.685 139.756C238.919 140.794 239.344 141.001 235.727 144.737C226.366 155.321 222.962 167.981 222.111 181.471C221.473 195.998 225.302 208.658 235.302 219.45L235.727 220.28H235.302C239.983 221.94 244.025 224.223 248.28 225.676C264.662 231.072 282.108 225.053 290.193 211.979C291.47 210.111 292.533 207.62 293.172 205.545C293.597 204.922 292.533 203.885 291.895 203.262C291.47 202.847 290.193 202.847 289.768 203.262L281.683 211.356C274.875 218.62 257.641 218.827 251.046 206.583C246.578 198.904 245.94 190.602 246.153 182.093C246.153 179.188 248.918 176.697 251.684 176.697C259.769 177.113 267.854 177.32 275.513 178.15C280.619 178.773 285.512 179.188 290.831 178.358C292.959 178.15 294.661 176.49 294.874 174.415C295.725 167.981 294.661 161.755 293.172 155.321C291.47 149.303 288.065 144.114 282.534 141.416C271.045 135.19 258.492 132.492 245.089 137.888H245.514ZM255.939 146.397C259.343 143.077 265.301 144.114 267.854 148.473C270.619 153.868 271.258 159.68 270.194 165.906C269.981 166.943 268.492 168.188 267.428 168.604C261.471 169.849 255.514 170.264 249.769 167.981C248.918 167.566 248.706 166.943 247.855 166.113C248.706 162.793 248.918 158.642 250.408 155.321C251.471 152.208 253.599 149.303 255.939 146.397Z" fill="#0A0A0A"/>
<path id="m-e_2" d="M581.831 86.3619C578.214 85.5318 574.81 84.9091 572.683 87.6071C570.981 90.3051 568.853 90.7202 566.513 90.7202H512.047C503.112 90.7202 493.75 90.3051 484.176 91.9654C486.091 91.9654 487.793 92.3804 489.495 92.3804H526.302C541.833 92.3804 557.364 91.9654 573.108 91.9654C577.576 91.9654 579.704 89.6825 581.831 86.3619ZM536.514 122.888C535.025 123.718 534.174 124.341 532.685 124.756C529.919 125.794 530.344 126.001 526.727 129.737C517.366 140.321 513.962 152.981 513.111 166.471C512.473 180.998 516.302 193.658 526.302 204.45L526.727 205.28H526.302C530.983 206.94 535.025 209.223 539.28 210.676C555.662 216.072 573.108 210.053 581.193 196.979C582.47 195.111 583.533 192.62 584.172 190.545C584.597 189.922 583.533 188.885 582.895 188.262C582.47 187.847 581.193 187.847 580.768 188.262L572.683 196.356C565.875 203.62 548.641 203.827 542.046 191.583C537.578 183.904 536.94 175.602 537.153 167.093C537.153 164.188 539.918 161.697 542.684 161.697C550.769 162.113 558.854 162.32 566.513 163.15C571.619 163.773 576.512 164.188 581.831 163.358C583.959 163.15 585.661 161.49 585.874 159.415C586.725 152.981 585.661 146.755 584.172 140.321C582.47 134.303 579.065 129.114 573.534 126.416C562.045 120.19 549.492 117.492 536.089 122.888H536.514ZM546.939 131.397C550.343 128.077 556.301 129.114 558.854 133.473C561.619 138.868 562.258 144.68 561.194 150.906C560.981 151.943 559.492 153.188 558.428 153.604C552.471 154.849 546.514 155.264 540.769 152.981C539.918 152.566 539.706 151.943 538.855 151.113C539.706 147.793 539.918 143.642 541.408 140.321C542.471 137.208 544.599 134.303 546.939 131.397Z" fill="#0A0A0A"/>
</g>
</g>
</svg>
