<svg width="1333" height="314" viewBox="0 0 1333 314" fill="none" xmlns="http://www.w3.org/2000/svg">
<rect width="1333" height="314" fill="#E5E5E5"/>
<g id="1 &#194;&#183; Men&#195;&#186; &#226;&#128;&#148; Espa&#195;&#177;ol by me">
<path d="M-1572.46 -1009.62C-1572.46 -1010.72 -1571.57 -1011.62 -1570.46 -1011.62H1410.46C1411.57 -1011.62 1412.46 -1010.72 1412.46 -1009.62V1261.06C1412.46 1262.16 1411.57 1263.06 1410.46 1263.06H-1570.46C-1571.57 1263.06 -1572.46 1262.16 -1572.46 1261.06V-1009.62Z" fill="#E60012"/>
<path d="M-1570.46 -1011.62V-1010.62H1410.46V-1011.62V-1012.62H-1570.46V-1011.62ZM1412.46 -1009.62H1411.46V1261.06H1412.46H1413.46V-1009.62H1412.46ZM1410.46 1263.06V1262.06H-1570.46V1263.06V1264.06H1410.46V1263.06ZM-1572.46 1261.06H-1571.46V-1009.62H-1572.46H-1573.46V1261.06H-1572.46ZM-1570.46 1263.06V1262.06C-1571.01 1262.06 -1571.46 1261.61 -1571.46 1261.06H-1572.46H-1573.46C-1573.46 1262.71 -1572.12 1264.06 -1570.46 1264.06V1263.06ZM1412.46 1261.06H1411.46C1411.46 1261.61 1411.01 1262.06 1410.46 1262.06V1263.06V1264.06C1412.12 1264.06 1413.46 1262.71 1413.46 1261.06H1412.46ZM1410.46 -1011.62V-1010.62C1411.01 -1010.62 1411.46 -1010.17 1411.46 -1009.62H1412.46H1413.46C1413.46 -1011.27 1412.12 -1012.62 1410.46 -1012.62V-1011.62ZM-1570.46 -1011.62V-1012.62C-1572.12 -1012.62 -1573.46 -1011.27 -1573.46 -1009.62H-1572.46H-1571.46C-1571.46 -1010.17 -1571.01 -1010.62 -1570.46 -1010.62V-1011.62Z" fill="black" fill-opacity="0.1"/>
<g id="menu/es/habilidades/seleccionada">
<g id="Group 19">
<path id="H" d="M75.9834 20.035C72.2585 19.9846 69.745 21.1832 69.2559 24.2579C67.3747 33.4765 65.4934 42.695 63.2058 51.6C59.4959 67.8809 55.771 84.7778 51.241 100.74C47.1473 115.783 43.0537 130.826 41.4283 146.519C39.8481 160.363 37.8615 173.894 35.446 188.036L26.5138 231.67C25.5656 236.587 24.6175 241.505 23.6693 246.422C22.3073 251.334 23.8424 256.285 22.0665 261.191C21.615 262.725 23.6393 264.601 25.6937 265.246C28.1619 265.895 29.8024 266.534 31.8719 266.562C45.1011 267.357 58.3304 268.152 71.5748 268.331C99.7039 269.328 127.863 269.093 156.022 268.858C171.351 268.449 186.665 268.656 203.266 267.032C203.318 264.875 204.199 262.73 204.65 261.196C205.267 252.885 206.705 244.893 207.329 236.273C208.834 225.509 210.339 214.745 211.009 204.277C211.408 187.951 212.213 171.939 214.259 155.944C216.299 140.257 217.924 124.564 220.37 109.19C224.162 89.5211 227.955 69.8519 232.568 50.5018C232.613 48.6536 233.072 46.811 233.117 44.9629C234.509 38.819 232.899 36.9484 225.065 35.6099L215.162 34.2434C170.553 29.9422 126.778 25.3443 82.1767 20.7351C80.5211 20.7127 78.0529 20.063 75.9834 20.035ZM78.5571 33.3196C85.9995 33.7284 93.4344 34.4453 100.455 35.1566C121.993 34.8317 120.307 36.0414 117.899 49.8748C116.454 58.1749 116.266 65.8757 114.821 74.1758C114.731 77.8722 114.219 81.871 114.121 85.8754L109.998 119.098L109.907 122.794C109.757 128.955 111.382 130.21 119.638 131.246C126.659 131.957 134.522 132.063 141.566 131.851C143.635 131.879 145.321 130.669 146.186 129.14L147.992 123.002L152.349 80.2299C153.508 66.6877 155.502 52.8487 157.098 38.388C159.167 38.4159 161.665 37.8335 163.313 38.1639C170.756 38.5727 178.183 39.5976 185.626 40.0065C190.577 40.6897 195.544 40.7569 200.503 41.1321C202.979 41.4738 205.018 42.7339 204.965 44.8901L204.928 46.4303C202.971 58.7292 202.67 71.0505 200.3 83.3437C198.893 90.1036 198.735 96.5723 198.17 102.727C196.507 119.96 194.859 136.577 192.79 153.497C191.579 169.195 189.968 184.272 187.936 199.651L183.753 235.338C183.707 237.186 183.256 238.721 182.398 239.942C181.924 242.4 179.825 243.605 176.506 243.868L174.023 243.834L135.975 242.087C136.02 240.239 135.223 238.995 135.268 237.147C137.405 217.455 138.714 197.753 142.085 178.386C142.62 173.463 142.74 168.534 142.86 163.606C143.748 161.153 141.31 159.271 138.834 158.929C135.945 158.582 133.898 157.63 131.001 157.591C124.8 157.199 119.006 157.12 112.797 157.036C109.072 156.986 106.965 158.498 105.663 160.946C105.633 162.178 105.603 163.41 105.159 164.636C104.121 173.25 103.082 181.864 102.044 190.478C100.93 202.172 99.8166 213.866 97.8751 225.548C95.8283 241.544 100.057 237.903 78.9343 238.234C70.649 238.43 61.98 237.388 52.8821 236.957C50.8126 236.929 49.1947 235.366 49.2398 233.518C49.744 229.827 50.6696 225.834 50.7674 221.83L54.7105 196C55.2372 191.385 55.7715 186.462 55.8919 181.534L60.1209 143.998L62.4084 118.146L70.904 41.5357C71.792 39.0826 71.8522 36.6184 72.3413 33.5437C74.4107 33.5717 76.9091 32.9892 78.5571 33.3196ZM101.998 107.589L101.6 106.967C100.757 107.572 100.343 107.567 100.343 107.567C100.335 107.875 100.749 107.88 100.742 108.188L101.998 107.589ZM97.7625 281.011C97.77 280.703 97.3486 281.005 97.3486 281.005C97.3486 281.005 97.7625 281.011 97.7474 281.627C98.1613 281.633 98.1764 281.017 99.0041 281.028L97.7625 281.011Z" fill="#0A0A0A"/>
<path id="A" d="M242.438 92.4757C241.176 92.5743 240.362 93.2708 240.027 94.7739C239.935 95.414 239.965 95.6227 239.663 96.0683C239.747 97.9606 239.29 99.8952 238.326 100.814C238.469 103.124 238.914 104.988 238.579 106.492C238.362 108.829 237.754 110.987 237.537 113.325C237.29 115.454 237.463 117.972 237.216 120.102L235.635 136.049C235.329 137.761 234.843 139.487 234.747 141.394C234.492 146.055 233.848 150.537 232.843 155.046C232.839 156.312 232.864 157.787 232.47 158.873C232.312 161.628 232.182 164.592 231.843 167.361C231.597 169.491 231.14 171.425 230.893 173.554C230.848 178.411 230.413 183.087 229.769 187.568C228.752 195.876 227.945 204.379 226.928 212.687L226.191 217.808C226.128 218.657 225.676 219.325 224.954 219.382C223.721 219.689 222.639 219.773 221.377 219.872C218.341 220.32 218.219 220.751 218.388 224.536C219.182 230.171 219.825 236.029 220.649 241.872C220.612 244.196 220.906 246.283 221.59 248.55C221.767 249.803 222.367 250.178 223.088 250.121C223.99 250.051 224.95 250.398 225.852 250.328L235.049 249.61C240.639 249.173 246.079 248.96 251.728 248.941C257.859 248.462 263.63 248.011 269.791 247.741L270.693 247.671C271.925 247.364 272.739 246.667 272.533 245.206C272.449 243.314 272.213 241.644 271.978 239.975C271.831 238.931 271.713 238.097 272.346 237.414C273.009 236.94 273.222 235.869 273.075 234.825C272.656 234.436 272.656 234.436 272.476 234.45C271.184 234.34 271.154 234.131 271.519 232.837C271.49 232.628 271.611 232.197 271.942 231.96L270.658 229.317C270.301 228.079 270.364 227.23 270.246 226.396C269.952 224.309 269.717 222.639 269.243 220.566C268.948 218.479 268.319 217.895 266.306 217.841C265.585 217.898 264.893 218.163 263.991 218.233C262.788 218.749 261.555 219.056 260.175 218.32C259.759 216.665 260.094 215.161 260.429 213.658C260.404 212.183 261.037 211.501 262.148 211.625C264.191 211.888 266.116 211.315 268.099 211.161L281.264 210.133C284.329 209.894 284.388 210.311 285.4 213.608C285.727 214.637 285.845 215.472 286.353 216.487C285.329 216.989 284.818 217.24 284.097 217.297L279.588 217.648C278.326 217.747 277.873 218.415 278.079 219.876C278.285 221.337 278.31 222.812 278.546 224.482C279.428 230.743 279.92 236.823 280.623 243.098C280.674 246.048 281.332 246.84 284.218 246.615C288.034 246.528 291.821 246.233 295.608 245.937L307.691 244.994C315.143 244.834 322.176 244.285 329.57 243.708C329.96 243.888 330.501 243.846 331.193 243.581C332.095 243.51 332.367 242.856 332.551 241.576L332.434 240.741C330.716 232.435 329.691 223.865 327.763 215.365C327.675 214.738 327.465 214.544 327.377 213.918L325.393 214.073C323.77 214.199 323.2 214.033 322.545 211.974C321.622 209.303 320.547 206.855 319.624 204.184L309.312 176.294C307.671 172.414 306.512 168.073 305.022 163.97C302.605 158.461 301.119 153.092 298.371 147.82C298.132 147.417 297.984 146.374 297.506 145.567L291.248 128.332C290.207 124.826 289.045 121.752 287.823 118.261C288.637 117.564 289.031 116.479 289.215 115.198C289.34 113.5 289.34 113.5 287.357 113.655C287.176 113.669 286.727 113.071 286.547 113.086C285.377 112.544 284.81 111.111 284.273 109.887C282.813 105.992 281.293 101.68 279.833 97.7852C278.968 95.5318 278.464 93.2502 276.547 91.2899C274.714 91.222 273.091 91.3487 271.288 91.4895L260.107 92.3623C258.065 92.0998 256.081 92.2547 253.887 92.2149C250.641 92.4683 247.366 92.513 243.759 92.7946C243.579 92.8087 243.038 92.8509 242.438 92.4757ZM234.551 97.3114C234.131 96.9221 233.59 96.9643 233.678 97.5904L234.668 98.1461C234.849 98.1321 235.18 97.8952 235.36 97.8811C235.121 97.4778 234.731 97.2973 234.551 97.3114ZM235.541 97.8671C235.533 100.4 235.533 100.4 235.978 102.264L236.158 102.25L236.678 99.4662C236.74 98.6174 236.14 98.2422 235.541 97.8671ZM308.966 92.3459C308.635 92.5828 308.455 92.5969 308.514 93.0143C308.333 93.0283 308.543 93.223 308.543 93.223L308.723 93.2089C309.055 92.972 308.996 92.5546 308.966 92.3459ZM215.54 113.776C215.507 114.834 215.444 115.682 215.771 116.712C216.537 111.799 217.094 106.692 217.68 101.793L215.54 113.776ZM234.024 102.627L234.2 103.88C234.2 103.88 234.41 104.074 234.59 104.06C234.561 103.851 234.921 103.823 234.502 103.434C234.473 103.225 234.443 103.017 234.204 102.613L234.024 102.627ZM308.1 100.431C307.589 100.682 307.375 101.754 307.975 102.129C308.395 102.518 308.785 102.699 309.057 102.045L310.261 101.529C309.385 103.074 309.439 104.758 309.914 106.83C310.576 106.357 310.878 105.911 310.731 104.868C310.765 103.81 310.408 102.572 310.382 101.097L310.353 100.888C310.264 100.262 310.055 100.068 309.966 99.4416L308.1 100.431ZM286.335 103.818C285.521 104.515 285.521 104.515 286.688 106.323C287.442 105.209 287.925 104.749 288.289 103.455C288.289 103.455 288.26 103.246 287.899 103.274C287.84 102.857 287.66 102.871 287.66 102.871L286.335 103.818ZM288.48 109.981C288.148 110.218 287.939 110.023 287.968 110.232L287.364 111.123C287.725 111.095 288.056 110.858 288.237 110.844C288.568 110.607 288.509 110.189 288.48 109.981ZM215.771 116.712L215.797 118.187L215.952 116.698L215.771 116.712ZM215.797 118.187C215.189 120.344 214.762 122.487 214.515 124.617C214.423 125.257 214.662 125.66 214.809 126.704L215.797 118.187ZM224.64 125.303C224.187 125.972 224.304 126.806 224.783 127.613L225.143 127.585C225.567 126.708 225.449 125.873 225.181 125.261C225.181 125.261 224.82 125.289 224.761 124.872L224.64 125.303ZM215.111 126.258C214.688 127.135 214.655 128.193 214.412 129.056C214.349 129.904 214.467 130.739 214.194 131.393C214.89 129.862 215.045 128.373 215.111 126.258ZM313.101 135.91C312.887 136.981 313.336 137.579 314.834 139.15L314.275 135.185C314.098 133.933 313.591 132.918 313.234 131.68L313.101 135.91ZM226.753 141.596C226.993 141.999 227.081 142.625 227.261 142.611C228.402 142.944 229.425 142.442 230.239 141.746C229.249 141.19 228.079 140.648 227.055 141.15L226.753 141.596ZM213.769 142.609L213.858 143.235L214.189 142.999C214.13 142.581 214.101 142.372 214.252 142.15L213.769 142.609ZM230.842 140.854C230.691 141.077 230.541 141.3 230.18 141.328C230.599 141.717 230.78 141.703 231.321 141.661C231.442 141.23 231.773 140.993 231.383 140.812L230.842 140.854ZM213.934 147.66C213.632 148.106 213.331 148.551 213.779 149.149C214.111 148.912 214.023 148.286 213.934 147.66ZM315.061 143.352C314.852 143.158 314.881 143.367 314.91 143.575C314.999 144.201 314.726 144.856 315.297 145.022C315.599 144.577 315.54 144.159 315.451 143.533C315.451 143.533 315.422 143.324 315.061 143.352ZM213.831 152.099C212.951 154.911 213.094 157.221 213.057 159.544C213.026 169.674 213.401 174.92 214.173 177.814C214.516 173.778 214.29 159.237 213.831 152.099ZM265.13 149.993C265.52 150.174 265.701 150.16 265.73 150.369C268.82 161.943 273.143 173.21 276.233 184.784C272.022 185.957 267.635 185.878 263.668 186.187C263.127 186.23 262.888 185.826 262.317 185.66C262.388 182.278 262.337 179.329 262.826 176.336C263.052 171.466 263.428 166.373 263.984 161.265C264.076 160.625 263.959 159.791 264.202 158.928C264.75 156.353 264.938 153.806 264.707 150.87C264.648 150.453 264.979 150.216 265.13 149.993ZM214.224 180.764C214.224 180.764 214.103 181.195 214.132 181.404L214.342 181.598C214.312 181.39 214.283 181.181 214.644 181.153C214.585 180.735 214.224 180.764 214.224 180.764ZM214.326 186.663C214.599 186.009 214.72 185.578 214.091 184.994L214.326 186.663ZM214.326 186.663C214.532 188.124 213.987 189.433 214.734 190.851C214.646 190.225 214.738 189.585 215.011 188.931C214.893 188.096 214.985 187.456 214.326 186.663ZM214.734 190.851C214.403 191.088 214.491 191.714 214.399 192.355L214.609 192.549C214.97 192.521 214.97 192.521 214.94 192.312L214.734 190.851ZM214.325 197.002C214.502 198.254 214.229 198.909 214.288 199.326C214.59 198.88 215.043 198.212 214.325 197.002ZM214.288 199.326C214.464 200.578 214.461 201.844 214.578 202.679C215.002 201.802 215.366 200.508 214.288 199.326ZM214.578 202.679C214.114 207.146 214.761 211.738 215.018 216.148C215.106 216.775 215.345 217.178 215.673 218.207C216.049 213.114 215.402 208.523 215.296 203.889C215.237 203.472 214.847 203.291 214.578 202.679ZM217.93 236.809C217.175 237.923 217.624 238.521 217.654 238.73L217.93 236.809ZM217.654 238.73C217.705 241.68 218.087 244.393 218.319 247.329C218.407 247.955 218.525 248.79 219.095 248.956C219.463 246.395 218.871 243.488 218.489 240.775C218.371 239.94 217.742 239.356 217.654 238.73ZM219.095 248.956C218.668 251.099 219.113 252.964 220.066 255.843C219.864 253.116 219.989 251.418 219.422 249.986C219.364 249.568 219.154 249.374 219.095 248.956Z" fill="#0A0A0A"/>
<path id="A_2" d="M877.143 80.6187C875.874 80.6187 874.967 81.2482 874.423 82.7171C874.242 83.3466 874.242 83.5564 873.879 83.9761C873.698 85.8647 872.972 87.7533 871.884 88.5926C871.703 90.9009 871.884 92.7895 871.34 94.2584C870.796 96.5666 869.89 98.6651 869.346 100.973C868.802 103.072 868.621 105.59 868.077 107.688L864.269 123.426C863.725 125.105 862.999 126.784 862.637 128.672C861.73 133.289 860.461 137.696 858.829 142.102C858.648 143.361 858.466 144.83 857.922 145.88C857.378 148.607 856.834 151.545 856.109 154.273C855.565 156.372 854.84 158.26 854.296 160.359C853.571 165.185 852.483 169.802 851.213 174.208C849.037 182.392 847.043 190.786 844.867 198.97L843.416 204.006C843.235 204.845 842.691 205.475 841.966 205.475C840.697 205.684 839.609 205.684 838.339 205.684C835.257 205.894 835.075 206.314 834.713 210.091C834.713 215.757 834.531 221.632 834.531 227.508C834.169 229.816 834.169 231.915 834.531 234.223C834.531 235.482 835.075 235.902 835.801 235.902C836.707 235.902 837.614 236.321 838.521 236.321H847.768C853.389 236.321 858.829 236.531 864.45 236.951C870.615 236.951 876.417 236.951 882.583 237.161H883.489C884.758 236.951 885.665 236.321 885.665 234.853C885.846 232.964 885.846 231.285 885.846 229.606C885.846 228.557 885.846 227.718 886.572 227.088C887.297 226.669 887.66 225.619 887.66 224.57C887.297 224.151 887.297 224.151 887.116 224.151C885.846 223.941 885.846 223.731 886.39 222.472C886.39 222.262 886.572 221.842 886.934 221.632L886.028 218.905C885.846 217.645 886.028 216.806 886.028 215.967C886.028 213.868 886.028 212.19 885.846 210.091C885.846 207.993 885.302 207.363 883.308 207.153C882.583 207.153 881.857 207.363 880.951 207.363C879.681 207.783 878.412 207.993 877.143 207.153C876.961 205.475 877.505 204.006 878.049 202.537C878.231 201.068 878.956 200.438 880.044 200.648C882.039 201.068 884.033 200.648 886.028 200.648H899.264C902.347 200.648 902.347 201.068 902.891 204.425C903.072 205.475 903.072 206.314 903.435 207.363C902.347 207.783 901.803 207.993 901.078 207.993H896.545C895.275 207.993 894.731 208.622 894.731 210.091C894.731 211.56 894.55 213.029 894.55 214.708C894.55 221.003 894.187 227.088 894.006 233.384C893.643 236.321 894.187 237.161 897.088 237.161C900.896 237.371 904.704 237.371 908.512 237.371H920.661C928.095 237.79 935.167 237.79 942.601 237.79C942.964 238 943.508 238 944.233 237.79C945.139 237.79 945.502 237.161 945.865 235.902V235.062C945.321 226.669 945.502 218.065 944.777 209.462C944.777 208.832 944.596 208.622 944.596 207.993H942.601C940.969 207.993 940.425 207.783 940.062 205.684C939.518 202.957 938.793 200.438 938.249 197.71L931.903 169.172C930.815 165.185 930.271 160.778 929.364 156.581C927.732 150.916 927.007 145.46 925.012 140.004C924.831 139.584 924.831 138.535 924.468 137.696L920.661 120.069C920.117 116.502 919.391 113.354 918.666 109.787C919.573 109.157 920.117 108.108 920.479 106.849C920.842 105.17 920.842 105.17 918.847 105.17C918.666 105.17 918.303 104.541 918.122 104.541C917.034 103.911 916.672 102.442 916.309 101.183C915.402 97.1962 914.496 92.7895 913.589 88.8025C913.045 86.4942 912.864 84.186 911.232 82.0875C909.419 81.8777 907.787 81.8777 905.973 81.8777H894.731C892.737 81.458 890.742 81.458 888.566 81.2482C885.302 81.2482 882.039 81.0383 878.412 81.0383C878.231 81.0383 877.687 81.0383 877.143 80.6187ZM868.621 84.8155C868.258 84.3958 867.714 84.3958 867.714 85.0253L868.621 85.6549C868.802 85.6549 869.164 85.445 869.346 85.445C869.164 85.0253 868.802 84.8155 868.621 84.8155ZM869.527 85.445C869.164 87.9631 869.164 87.9631 869.346 89.8517H869.527L870.434 87.1238C870.615 86.2844 870.071 85.8647 869.527 85.445ZM943.326 85.6549C942.964 85.8647 942.782 85.8647 942.782 86.2844C942.601 86.2844 942.782 86.4942 942.782 86.4942H942.964C943.326 86.2844 943.326 85.8647 943.326 85.6549ZM847.406 99.7143C847.224 100.763 847.043 101.603 847.224 102.652C848.675 97.8257 849.944 92.7895 851.213 87.9631L847.406 99.7143ZM867.351 90.0615V91.3206C867.351 91.3206 867.533 91.5304 867.714 91.5304C867.714 91.3206 868.077 91.3206 867.714 90.9009C867.714 90.6911 867.714 90.4812 867.533 90.0615H867.351ZM941.332 93.6289C940.788 93.8387 940.425 94.8879 940.969 95.3076C941.332 95.7273 941.694 95.9371 942.057 95.3076L943.326 94.8879C942.238 96.3568 942.057 98.0355 942.238 100.134C942.964 99.7143 943.326 99.2946 943.326 98.2454C943.508 97.1962 943.326 95.9371 943.508 94.4682V94.2584C943.508 93.6289 943.326 93.419 943.326 92.7895L941.332 93.6289ZM919.21 95.3076C918.303 95.9371 918.303 95.9371 919.21 97.8257C920.117 96.7765 920.661 96.3568 921.205 95.0978C921.205 95.0978 921.205 94.8879 920.842 94.8879C920.842 94.4682 920.661 94.4682 920.661 94.4682L919.21 95.3076ZM920.479 101.603C920.117 101.813 919.935 101.603 919.935 101.813L919.21 102.652C919.573 102.652 919.935 102.442 920.117 102.442C920.479 102.232 920.479 101.813 920.479 101.603ZM847.224 102.652L847.043 104.121L847.406 102.652H847.224ZM847.043 104.121C846.136 106.219 845.411 108.318 844.867 110.416C844.686 111.046 844.867 111.465 844.867 112.515L847.043 104.121ZM854.84 111.885C854.296 112.515 854.296 113.354 854.659 114.193H855.021C855.565 113.354 855.565 112.515 855.384 111.885C855.384 111.885 855.021 111.885 855.021 111.465L854.84 111.885ZM845.23 112.095C844.686 112.934 844.504 113.984 844.142 114.823C843.96 115.662 843.96 116.502 843.598 117.131C844.504 115.662 844.867 114.193 845.23 112.095ZM941.332 129.302C940.969 130.351 941.332 130.981 942.601 132.659V128.672C942.601 127.413 942.238 126.364 942.057 125.105L941.332 129.302ZM854.659 128.253C854.84 128.672 854.84 129.302 855.021 129.302C856.109 129.722 857.197 129.302 858.104 128.672C857.197 128.043 856.109 127.413 855.021 127.833L854.659 128.253ZM841.603 128.253V128.882L841.966 128.672C841.966 128.253 841.966 128.043 842.147 127.833L841.603 128.253ZM858.829 127.833C858.648 128.043 858.466 128.253 858.104 128.253C858.466 128.672 858.648 128.672 859.192 128.672C859.373 128.253 859.736 128.043 859.373 127.833H858.829ZM841.059 133.289C840.697 133.709 840.334 134.128 840.697 134.758C841.059 134.548 841.059 133.919 841.059 133.289ZM942.238 136.856C942.057 136.646 942.057 136.856 942.057 137.066C942.057 137.696 941.694 138.325 942.238 138.535C942.601 138.115 942.601 137.696 942.601 137.066C942.601 137.066 942.601 136.856 942.238 136.856ZM840.334 137.696C839.065 140.424 838.883 142.732 838.521 145.04C837.07 155.113 836.707 160.359 837.07 163.296C837.977 159.309 839.79 144.83 840.334 137.696ZM891.649 139.584C892.011 139.794 892.193 139.794 892.193 140.004C893.643 151.755 896.363 163.296 897.814 175.048C893.462 175.887 889.11 175.467 885.121 175.467C884.577 175.467 884.396 175.048 883.852 174.838C884.396 171.48 884.758 168.542 885.665 165.605C886.572 160.778 887.66 155.742 888.929 150.706C889.11 150.076 889.11 149.237 889.473 148.398C890.379 145.88 890.923 143.361 891.105 140.424C891.105 140.004 891.467 139.794 891.649 139.584ZM836.707 166.234C836.707 166.234 836.526 166.654 836.526 166.864L836.707 167.074C836.707 166.864 836.707 166.654 837.07 166.654C837.07 166.234 836.707 166.234 836.707 166.234ZM835.982 172.11C836.345 171.48 836.526 171.061 835.982 170.431V172.11ZM835.982 172.11C835.982 173.579 835.257 174.838 835.801 176.307C835.801 175.677 835.982 175.048 836.345 174.418C836.345 173.579 836.526 172.949 835.982 172.11ZM835.801 176.307C835.438 176.516 835.438 177.146 835.257 177.776L835.438 177.985C835.801 177.985 835.801 177.985 835.801 177.776V176.307ZM834.531 182.392C834.531 183.651 834.169 184.281 834.169 184.7C834.531 184.281 835.075 183.651 834.531 182.392ZM834.169 184.7C834.169 185.959 833.988 187.218 833.988 188.058C834.531 187.218 835.075 185.959 834.169 184.7ZM833.988 188.058C832.9 192.464 832.9 197.081 832.537 201.488C832.537 202.117 832.718 202.537 832.9 203.586C833.988 198.55 833.988 193.933 834.531 189.317C834.531 188.897 834.169 188.687 833.988 188.058ZM832.537 222.262C831.63 223.311 831.993 223.941 831.993 224.151L832.537 222.262ZM831.993 224.151C831.63 227.088 831.63 229.816 831.449 232.754C831.449 233.384 831.449 234.223 831.993 234.433C832.718 231.915 832.537 228.977 832.537 226.249C832.537 225.41 831.993 224.78 831.993 224.151ZM831.993 234.433C831.268 236.531 831.449 238.42 831.993 241.358C832.174 238.63 832.537 236.951 832.174 235.482C832.174 235.062 831.993 234.853 831.993 234.433Z" fill="#0A0A0A"/>
<path id="L" d="M528.375 103.538C526.327 103.762 524.572 103.955 522.275 104.429C521.69 104.493 521.483 104.96 521.234 105.21C520.528 106.177 521.208 108.104 523.049 108.347C524.262 108.437 525.476 108.527 526.646 108.399C533.047 109.032 537.16 111.696 539.027 116.607C539.664 118.317 540.009 120.059 540.353 121.8C541.222 127.711 541.713 133.218 542.832 138.878C543.624 145.909 544.416 152.94 545.458 159.722C546.93 168.68 547.773 177.485 549.245 186.443C549.994 193.256 550.743 200.07 551.449 206.665L553.507 223.122L556.038 241.974C556.339 243.498 556.683 245.239 556.443 247.045C555.299 251.841 552.434 255.491 545.499 256.696C544.329 256.824 543.159 256.952 542.075 257.515C540.698 258.111 540.87 258.982 541.042 259.853C541.215 260.724 541.636 261.345 542.849 261.434C545.861 261.549 548.494 261.261 550.877 261.223C560.866 260.351 571.105 259.23 581.472 258.762C592.047 257.827 602.165 257.609 612.782 256.891C627.202 255.757 641.915 254.591 656.628 253.425C658.675 253.201 661.102 253.38 663.442 253.124C665.197 252.932 665.946 252.183 665.644 250.659C665.593 248.885 665.248 247.143 664.99 245.837C664.267 236.129 663.251 226.454 662.527 216.746C661.339 206.2 659.859 195.685 660.133 184.979C659.918 183.89 659.703 182.802 659.152 181.527C659.066 181.092 658.059 180.535 657.474 180.599C656.597 180.695 655.762 181.009 655.556 181.476C654.764 182.008 654.644 182.911 654.816 183.781C655.333 193.957 653.922 203.453 652.306 213.417C651.007 220.454 648.788 227.37 645.605 233.947C643.996 237.904 641.673 241.272 638.137 244.551C635.1 247.33 631.555 249.053 627.004 250.218C622.453 251.384 617.686 251.461 612.919 251.538C609.572 251.237 607.017 250.405 605.081 248.17C602.474 245.564 601.243 242.362 600.555 238.879L598.626 223.075C596.543 209.513 594.959 195.451 593.418 181.607L588.399 144.121L585.136 121.568C584.62 118.956 584.689 116.279 584.843 114.038C585.686 107.717 588.801 103.818 597.077 103.356C598.248 103.228 599.418 103.1 600.545 102.754C601.379 102.44 602.128 101.691 602.291 101.006C602.911 99.6036 601.482 98.4254 599.392 98.4319C597.886 98.3743 596.131 98.5665 594.668 98.7266C587.561 99.0599 580.54 99.8286 573.812 100.565C558.807 101.763 543.716 102.526 528.375 103.538ZM518.035 138.924C517.992 138.706 518.534 138.425 517.863 138.053L518.035 138.924ZM518.552 141.537C518.965 140.602 518.793 139.731 518.035 138.924L518.552 141.537ZM518.199 145.802L519.861 166.305C519.448 167.24 519.707 168.547 519.879 169.417C520.051 170.288 519.974 171.409 521.273 171.934L521.479 171.466C522.012 162.066 520.996 152.391 519.395 142.779C519.309 142.344 518.681 142.19 518.552 141.537L518.199 145.802ZM521.523 179.247C521.566 179.464 521.273 179.496 521.273 179.496C520.731 179.778 521.402 180.15 521.445 180.367C521.402 180.15 521.609 179.682 521.609 179.682C521.858 179.432 521.566 179.464 521.523 179.247ZM522.263 184.504C522.306 184.722 521.721 184.786 521.721 184.786C522.022 186.31 521.988 187.648 521.997 189.204C522.47 191.599 521.98 193.654 523.623 195.921C524.397 192.278 524.122 187.859 522.263 184.504ZM523.916 195.889C523.589 197.26 523.056 199.097 523.779 201.242C525.655 207.71 526.447 214.741 527.824 221.708C528.211 223.667 528.263 225.441 529.95 227.925C530.027 226.805 530.483 226.088 530.397 225.652C530.001 222.137 529.605 218.621 528.916 215.138C527.376 208.856 525.878 202.792 524.587 196.261C524.544 196.043 523.959 196.107 523.916 195.889Z" fill="#0A0A0A"/>
<path id="S" d="M1226.18 58.4908C1220.51 59.2509 1214.64 60.2486 1208.48 61.0749C1203.65 62.1448 1198.82 63.2147 1193.89 64.931C1189.79 65.9018 1185.21 67.994 1180.97 69.4067C1180.72 69.4398 1180.33 69.9148 1180.08 69.9478C1177.97 71.7095 1175.99 73.0293 1173.88 74.7909C1169.98 77.6348 1167.77 81.0983 1165.25 84.3903C1164.02 86.6662 1162.79 88.9421 1162.25 90.9144C1161.71 92.8866 1161.12 94.6545 1161.27 96.3232C1160.43 98.124 1159.99 100.505 1160.49 102.55C1162.02 108.888 1163.56 115.226 1166.57 121.366C1169.09 127.572 1173.09 133.579 1179.3 138.234C1182.76 140.937 1186.85 143.132 1191.59 144.82C1200.52 148.055 1209.99 149.319 1219.21 150.616L1233.16 152.544C1235.04 152.926 1236.42 153.374 1238.1 153.994C1241.55 155.642 1244.46 157.151 1247.67 158.832C1250.53 160.137 1252.3 162.221 1253.83 164.338C1254.82 166.316 1256.06 168.262 1256.85 170.478C1259.37 175.628 1260.6 180.74 1259.62 186.148C1258.99 190.878 1256.28 194.407 1251.25 196.77C1246.86 198.625 1241.93 199.286 1237.05 199.096C1235.57 199.294 1233.7 198.912 1232.32 198.464C1228.47 197.291 1224.97 195.439 1222.05 192.874C1219.39 190.276 1216.18 187.54 1214.8 183.926L1207.88 170.076L1206.01 166.529C1205.41 166.186 1204.87 166.047 1204.33 165.909C1203.49 165.599 1202.6 166.14 1202.11 166.206C1197.03 167.309 1192.1 167.97 1187.57 169.212C1187.32 169.245 1186.83 169.311 1186.88 169.515C1186.38 169.581 1186.04 170.261 1186.19 170.874C1186.34 171.488 1186.98 172.035 1187.08 172.444L1191.87 184.889L1197.06 200.024C1198.74 203.81 1200.12 207.424 1201.26 211.071C1201.61 212.502 1202.2 213.9 1202.99 215.061C1203.63 216.664 1204.52 217.178 1206.39 216.504C1207.82 216.102 1209.06 215.936 1210.54 215.738C1216.99 214.028 1223.7 212.285 1230.9 211.531C1231.88 211.399 1233.41 211.405 1234.4 211.272C1236.32 210.804 1238.84 210.678 1240.71 210.004C1244.31 209.1 1248.3 207.72 1252.05 206.373L1268.96 201.573L1280.94 198.49C1282.07 197.915 1283.45 197.308 1284.53 196.53C1288.03 193.105 1291.78 189.648 1293.6 185.604C1296.16 181.461 1297.44 177.279 1296.25 172.372C1295.6 169.715 1294.91 166.852 1294.71 163.924C1293.67 158.575 1292.29 152.85 1291 147.534C1289.61 141.81 1286.5 137.372 1281.03 133.673C1277.87 131.141 1274.61 129.256 1271.31 127.166C1270.17 126.685 1268.5 126.065 1267.31 125.38L1261.34 123.858C1258.09 123.028 1255.08 122.164 1251.63 121.572C1247.63 120.841 1243.64 120.11 1238.95 119.682C1237.38 119.472 1235.9 118.615 1234.91 117.692C1231.36 118.801 1227.86 118.004 1224.65 117.378C1223.52 116.897 1221.94 116.686 1220.85 116.41C1216.46 115.098 1212.72 113.279 1209.16 111.222C1207.04 109.818 1205.56 107.906 1203.44 106.501C1201.07 104.075 1199.74 101.72 1198.8 98.8912C1197.46 95.4815 1197.16 92.1442 1196.67 89.0443C1196.81 83.3258 1199.57 78.9454 1204.65 75.7318C1208 73.8048 1211.79 72.6626 1216.23 72.0677C1219.93 71.572 1223.63 72.1315 1226.93 74.2214C1230.93 76.0077 1234.43 78.9154 1236.8 82.3973C1240.06 86.3934 1242.43 90.9305 1244.5 95.2963C1245.34 96.6614 1245.89 97.8551 1246.78 99.4246C1247.86 99.7013 1248.11 99.6683 1248.35 99.6352C1252.55 99.0734 1256.98 98.4784 1261.32 97.4746C1262.06 97.3755 1262.75 97.0719 1263.64 96.5308C1264.77 95.9566 1265.56 95.0066 1264.97 93.6085C1264.37 92.2103 1263.29 90.8783 1262.94 89.4471C1261.46 86.4795 1260.42 83.2413 1259.28 80.6494C1258 77.4443 1256.03 74.5427 1256.17 71.9901C1257.06 68.2831 1253.5 66.2262 1253.25 63.0933L1252.81 61.2532C1252.76 61.0488 1252.61 60.4354 1252.22 59.8551C1252.12 59.4462 1251.23 58.932 1250.09 58.4508C1249.85 58.4839 1249.3 58.3455 1249.3 58.3455C1245.41 58.0235 1241.71 58.5192 1238.06 57.1088L1237.57 57.1749C1233.97 58.0796 1229.88 57.995 1226.18 58.4908ZM1265.49 68.4191C1266.13 68.9664 1266.18 69.1708 1266.47 69.3422C1266.57 69.7511 1267.31 69.652 1267.56 69.6189C1267.81 69.5859 1267.61 68.7681 1267.36 68.8011C1267.02 68.4253 1266.28 68.5244 1265.49 68.4191ZM1147.11 90.4109C1147.11 90.4109 1147.11 90.4109 1146.62 90.477L1146.42 90.7145C1146.52 92.1787 1146.38 93.676 1147.36 95.6544L1147.61 95.6214C1147.86 95.5883 1148.35 95.5222 1148.35 95.5222C1148.15 93.6491 1148.25 91.9474 1147.11 90.4109ZM1271.16 76.1015C1270.92 76.1346 1270.57 75.7587 1270.18 76.2337C1269.93 76.2668 1270.08 76.8801 1270.87 76.9854L1271.86 76.8532C1271.81 76.6488 1271.21 76.306 1271.16 76.1015ZM1137.23 116.856C1136.98 116.889 1136.78 117.127 1136.78 117.127C1137.08 117.298 1137.27 117.061 1137.77 116.995C1137.27 117.061 1137.23 116.856 1137.23 116.856ZM1152.81 117.089L1153.15 118.52C1153.3 118.078 1153.74 117.808 1153.65 117.399L1152.81 117.089ZM1153.4 118.487C1153.2 118.725 1153.25 118.929 1153.35 119.338C1153.4 119.543 1153.4 119.543 1153.7 119.714C1153.65 119.509 1154.09 119.239 1154.09 119.239C1153.94 118.626 1153.45 118.692 1153.4 118.487ZM1155.77 126.19L1155.38 126.665L1156.71 129.02C1157.55 128.274 1156.96 126.876 1155.77 126.19ZM1158.69 134.032C1158.74 134.236 1158.59 134.678 1158.59 134.678C1158.84 135.701 1159.38 136.894 1159.58 137.712C1160.42 136.966 1160.66 135.878 1159.87 134.717C1159.82 134.513 1158.99 134.203 1158.69 134.032ZM1159.58 137.712C1159.93 139.143 1160.42 140.132 1160.72 141.359C1160.77 141.564 1161.51 141.464 1161.61 141.873C1161.46 139.149 1161.46 139.149 1159.58 137.712ZM1162.84 144.874C1163.63 148.145 1164.18 149.339 1166.69 151.324C1166.74 148.362 1164.57 146.753 1162.84 144.874ZM1170.2 159.508L1170.99 160.669C1170.99 160.669 1171.53 160.807 1171.63 161.216C1172.17 160.299 1172.03 159.685 1171.33 158.934C1171.04 157.707 1169.95 156.375 1168.13 155.142L1170.2 159.508ZM1172.27 162.818C1172.27 162.818 1172.72 162.548 1172.62 162.139C1172.08 162.001 1171.98 161.592 1171.88 161.183L1172.27 162.818ZM1179.1 180.48C1180.23 185.182 1182.31 189.548 1184.78 193.439C1185.27 194.428 1185.62 194.804 1186.21 195.147C1185.42 191.875 1184.13 188.67 1183.04 185.228C1182.45 183.829 1181.61 182.464 1180.48 180.928C1180.18 180.757 1179.93 180.79 1179.1 180.48ZM1186.21 195.147C1185.67 196.064 1185.86 196.881 1186.06 197.699C1186.26 198.517 1186.71 199.302 1186.85 199.915C1188.13 198.899 1187.84 197.672 1187.1 196.716C1186.7 196.136 1186.31 195.556 1186.21 195.147ZM1188.58 202.85L1189.32 202.751C1189.22 202.342 1189.57 201.662 1189.42 201.049C1189.17 200.027 1187.84 199.783 1186.85 199.915L1188.58 202.85Z" fill="#0A0A0A"/>
<path id="m-i" d="M490.213 116.426C489.663 121.993 489.113 127.559 488.562 133.391C489.663 134.186 490.764 135.247 491.589 136.042C496.267 139.223 501.219 139.753 505.897 138.693C513.051 136.307 515.527 130.21 515.252 125.439C514.427 113.245 501.77 109.534 494.065 114.04L490.213 116.426ZM492.69 143.994C492.139 143.994 491.314 144.26 491.314 144.79C491.589 145.055 492.139 145.32 492.139 145.055C492.414 145.055 492.69 144.79 492.965 144.525C492.965 144.26 492.69 143.994 492.69 143.994ZM489.113 156.983C488.287 156.983 487.187 157.248 486.361 157.514L485.261 165.996C488.562 167.322 490.213 169.442 490.488 172.623C490.488 173.683 490.764 175.009 490.764 176.334V189.058C490.764 199.396 491.039 209.469 491.039 219.807C491.314 224.579 491.314 229.085 491.314 233.857C491.039 237.568 490.213 241.014 485.811 242.869L484.985 243.4C483.61 244.195 483.059 244.99 483.059 246.316C483.059 251.352 483.885 251.617 488.562 251.882H491.314C500.394 251.882 509.199 251.882 518.004 251.617H521.03C524.607 251.352 525.433 250.557 525.433 247.641C525.708 245.255 524.882 243.4 522.406 242.869L521.58 242.339C518.829 241.014 517.453 239.158 517.178 236.242C517.178 234.652 516.903 232.796 516.903 230.941C516.628 215.036 516.628 199.396 516.353 183.757V177.13H516.903C517.178 177.13 518.004 177.13 518.004 176.599L516.353 176.334V168.382C516.353 165.731 516.077 163.08 516.077 160.429C516.077 154.863 515.527 154.333 509.199 155.128L489.113 156.983ZM512.776 176.599C511.95 176.864 511.4 176.864 510.024 176.599C511.125 175.804 511.95 175.804 512.776 176.599Z" fill="#0A0A0A"/>
<path id="m-i_2" d="M674.05 105.902C673.5 111.468 672.949 117.035 672.399 122.867C673.5 123.662 674.6 124.722 675.426 125.518C680.103 128.699 685.056 129.229 689.734 128.168C696.887 125.783 699.364 119.686 699.089 114.914C698.263 102.721 685.606 99.0096 677.902 103.516L674.05 105.902ZM676.526 133.47C675.976 133.47 675.151 133.735 675.151 134.265C675.426 134.53 675.976 134.795 675.976 134.53C676.251 134.53 676.526 134.265 676.801 134C676.801 133.735 676.526 133.47 676.526 133.47ZM672.949 146.459C672.124 146.459 671.023 146.724 670.198 146.989L669.097 155.472C672.399 156.797 674.05 158.918 674.325 162.099C674.325 163.159 674.6 164.484 674.6 165.81V178.534C674.6 188.872 674.875 198.945 674.875 209.283C675.151 214.055 675.151 218.561 675.151 223.332C674.875 227.043 674.05 230.49 669.648 232.345L668.822 232.875C667.446 233.67 666.896 234.466 666.896 235.791C666.896 240.828 667.721 241.093 672.399 241.358H675.151C684.231 241.358 693.035 241.358 701.84 241.093H704.867C708.444 240.828 709.269 240.032 709.269 237.117C709.544 234.731 708.719 232.875 706.243 232.345L705.417 231.815C702.666 230.49 701.29 228.634 701.015 225.718C701.015 224.128 700.74 222.272 700.74 220.416C700.464 204.512 700.464 188.872 700.189 173.232V166.605H700.74C701.015 166.605 701.84 166.605 701.84 166.075L700.189 165.81V157.857C700.189 155.207 699.914 152.556 699.914 149.905C699.914 144.338 699.364 143.808 693.035 144.603L672.949 146.459ZM696.612 166.075C695.787 166.34 695.237 166.34 693.861 166.075C694.961 165.28 695.787 165.28 696.612 166.075Z" fill="#0A0A0A"/>
<path id="m-e" d="M1152.13 54.1215C1146.92 53.279 1142.03 52.6963 1139.35 56.4183C1137.27 60.1102 1134.31 60.8104 1131 60.9764L1054.01 64.8377C1041.38 65.4712 1028.09 65.5854 1014.76 68.4618C1017.46 68.3261 1019.92 68.7548 1022.33 68.6342L1074.36 66.0248C1096.31 64.9237 1118.22 63.2732 1140.47 62.157C1146.79 61.8403 1149.52 58.6677 1152.13 54.1215ZM1092.45 105.683C1090.44 106.887 1089.32 107.772 1087.26 108.427C1083.47 109.997 1084.1 110.241 1079.44 115.442C1067.47 130.116 1064.18 147.115 1064.59 165.031C1065.43 184.306 1072.36 200.792 1087.79 214.368L1088.49 215.436L1087.89 215.467C1094.7 217.332 1100.69 220.068 1106.88 221.689C1130.69 227.67 1154.63 218.467 1164.49 200.587C1166.07 198.024 1167.27 194.652 1167.93 191.86C1168.45 191.005 1166.83 189.707 1165.85 188.928C1165.2 188.409 1163.39 188.5 1162.84 189.079L1152.38 200.366C1143.63 210.463 1119.29 211.96 1108.5 196.22C1101.27 186.372 1099.37 175.429 1098.65 164.151C1098.3 160.305 1101.91 156.812 1105.82 156.616C1117.3 156.592 1128.76 156.294 1139.68 156.85C1146.97 157.312 1153.94 157.515 1161.36 156.039C1164.34 155.613 1166.55 153.295 1166.6 150.533C1167.04 141.956 1164.79 133.79 1161.91 125.38C1158.78 117.534 1153.35 110.908 1145.2 107.729C1128.22 100.302 1110.15 97.6205 1091.85 105.713L1092.45 105.683ZM1108.21 116.207C1112.62 111.57 1121.17 112.522 1125.3 118.109C1129.85 125.056 1131.45 132.702 1130.7 141.019C1130.52 142.408 1128.56 144.162 1127.11 144.786C1118.84 146.857 1110.47 147.829 1102.07 145.214C1100.82 144.725 1100.44 143.916 1099.14 142.878C1099.95 138.422 1099.75 132.913 1101.46 128.412C1102.59 124.216 1105.25 120.219 1108.21 116.207Z" fill="#0A0A0A"/>
<path id="m-d" d="M741.943 87.7708C742.021 88.1491 741.591 88.5855 741.669 88.9637C742.099 88.5274 743.116 88.4112 741.943 87.7708ZM741.669 88.9637C741.102 89.9966 740.613 91.4077 740.377 92.7897C738.03 96.5428 736.485 100.398 734.685 104.282C734.333 105.097 733.981 105.911 732.202 106.115C729.543 105.838 729.269 107.031 728.858 108.82C727.957 114.537 727.055 120.255 726.017 126.569C724.84 138.513 721.962 151.038 718.165 162.895C716.54 168.888 715.131 174.664 713.643 180.061C712.587 182.505 713.172 185.342 713.679 187.801C715.418 192.442 717.117 196.894 718.053 201.434L724.415 232.263C726.132 240.585 725.193 241.08 736.962 240.122C746.658 239.207 756.823 238.046 766.734 236.913C778.034 236.202 788.727 233.818 799.889 233.704L802.43 233.414C805.617 232.469 808.667 232.12 811.716 231.772C814.473 231.263 816.916 231.758 819.438 232.632C823.132 234.145 826.376 234.742 830.344 235.063C832.378 234.831 833.394 234.715 834.626 234.38C837.011 233.333 838.517 231.806 838.048 229.536C837.835 224.721 837.837 219.687 836.021 214.667C835.064 211.292 833.638 208.164 833.014 205.138C831.102 195.87 829.15 186.413 827.277 177.334C825.071 167.906 823.53 159.177 823.436 149.895C822.968 145.108 823.518 140.206 823.265 135.201C823.054 125.351 821.357 115.865 820.969 106.423C820.891 106.045 820.559 105.696 820.403 104.939C819.64 105.026 818.839 104.924 818.253 104.604C817.158 104.342 816.611 104.211 816.024 103.891C814.618 99.5989 816.457 95.9039 813.644 92.3535C811.454 91.8293 808.698 92.3379 806.411 92.5994C798.533 93.4998 790.224 94.8366 781.838 95.7951C771.164 97.015 759.982 98.293 748.468 99.2218C746.181 99.4832 743.718 100.152 740.903 99.1185C739.652 98.0998 740.357 96.4705 741.1 95.0304C741.472 93.0518 742.137 91.2334 741.669 88.9637ZM763.908 108.492C767.505 108.275 771.317 107.839 775.207 107.782C779.859 107.637 784.942 107.056 790.181 107.232C794.11 107.364 798.059 106.331 802.047 105.488C805.605 105.082 808.4 104.762 811.313 105.01C807.636 109.883 807.088 112.269 808.044 118.161L810.697 131.023C810.305 134.165 810.93 137.191 811.339 140.436C811.651 141.949 811.455 143.52 811.689 144.655L816.334 167.163C816.802 169.432 817.016 171.731 817.152 173.651C818.263 182.817 819.999 192.492 821.873 201.571C822.848 206.299 824.763 210.533 830.88 213.706C828.339 213.997 827.908 214.433 826.638 214.578C818.682 215.1 810.764 215.812 802.632 216.741C799.074 217.148 795.165 215.852 791.509 217.044C790.277 217.379 789.535 216.302 789.418 215.735C789.106 214.222 789.165 213.247 788.97 212.301C788.325 210.439 788.228 208.707 787.192 207.471C784.906 205.215 784.321 202.378 784.244 199.483C784.929 196.501 783.933 192.936 783.563 189.881C783.446 189.313 783.075 188.775 782.997 188.397C782.218 179.58 779.894 172.102 778.646 163.532C778.237 160.288 776.889 157.538 775.933 154.163C775.816 153.595 774.682 153.144 775.542 152.271C776.306 149.667 775.837 147.397 775.33 144.939C774.59 136.311 772.99 128.557 771.527 120.205C770.629 115.855 768.363 112.436 763.242 110.311C762.734 110.369 762.656 109.991 762.246 109.263C762.5 109.234 762.891 108.609 763.908 108.492ZM796.136 124.75C795.12 124.866 794.69 125.302 794.083 126.146C794.2 126.713 795.197 127.761 795.705 127.703C796.761 127.776 797.406 127.121 797.504 126.336C797.895 125.71 796.977 125.041 796.136 124.75ZM754.649 143.043C756.76 143.189 759.125 143.306 761.353 144.019C762.194 144.31 763.797 144.514 766.689 145.926C763.288 147.089 762.017 147.235 760.101 148.034C757.677 148.892 755.741 150.856 755.525 153.591C755.348 156.515 755.288 160.007 755.365 162.902C756.301 169.958 756.943 176.854 758.465 184.231C760.672 191.142 761.353 198.227 762.719 204.847C763.227 207.306 763.695 209.575 765.102 211.351C767.329 214.581 769.752 216.24 774.62 215.877C774.874 215.848 776.223 216.081 776.731 216.023C776.672 216.998 776.75 217.376 776.496 217.405C771.862 221.42 766.134 222.655 760.171 222.756C748.638 222.331 739.237 218.372 732.144 210.471C727.22 204.258 723.958 197.274 722.221 190.116C721.948 188.792 721.636 187.279 721.656 186.115C721.618 183.409 721.873 180.863 720.016 178.171C719.645 177.633 719.704 176.658 719.978 175.465L721.037 167.987C721.272 166.605 721.546 165.412 722.035 164.001C723.483 160.932 724.969 158.051 726.925 154.924C730.602 150.051 735.745 145.978 743.584 144.889C746.086 144.409 747.787 143.827 750.837 143.479C751.853 143.363 753.339 142.999 754.649 143.043Z" fill="#0A0A0A"/>
<path id="m-d_2" d="M994.202 85.4023C994.202 85.7851 993.688 86.1678 993.688 86.5505C994.202 86.1678 995.231 86.1678 994.202 85.4023ZM993.688 86.5505C992.917 87.5073 992.146 88.8468 991.631 90.1862C988.546 93.6306 986.232 97.2664 983.661 100.902C983.147 101.668 982.632 102.433 980.833 102.433C978.261 101.859 977.747 103.007 976.976 104.729C974.919 110.279 972.862 115.828 970.548 121.951C966.948 133.624 961.549 145.679 955.378 156.969C952.55 162.71 949.979 168.259 947.408 173.426C945.865 175.722 945.865 178.593 945.865 181.08C946.636 185.864 947.408 190.457 947.408 195.049V226.24C947.408 234.66 946.379 235.043 958.206 235.425C967.977 235.617 978.261 235.617 988.289 235.617C999.602 236.191 1010.66 235.043 1021.71 236.191H1024.28C1027.63 235.617 1030.71 235.617 1033.8 235.617C1036.63 235.425 1038.94 236.191 1041.25 237.339C1044.6 239.253 1047.68 240.209 1051.54 240.975C1053.6 240.975 1054.62 240.975 1055.91 240.783C1058.48 240.018 1060.28 238.678 1060.28 236.382C1061.05 231.598 1062.08 226.623 1061.31 221.456C1061.05 218.012 1060.28 214.759 1060.28 211.697C1060.28 202.321 1060.28 192.753 1060.28 183.568C1060.02 174 1060.28 165.198 1062.08 156.013C1062.59 151.229 1064.14 146.445 1064.91 141.47C1066.71 131.71 1066.97 122.143 1068.51 112.766C1068.51 112.384 1068.25 112.001 1068.25 111.235C1067.48 111.235 1066.71 111.044 1066.19 110.661C1065.17 110.279 1064.65 110.087 1064.14 109.705C1063.62 105.303 1066.19 101.859 1064.14 98.0318C1062.08 97.2664 1059.25 97.4578 1056.94 97.4578C1048.97 97.4578 1040.48 97.8405 1032 97.8405C1021.2 97.8405 1009.89 97.8405 998.316 97.4578C996.002 97.4578 993.431 97.8405 990.86 96.501C989.832 95.3529 990.86 93.822 991.888 92.4825C992.66 90.569 993.688 88.8468 993.688 86.5505ZM1011.69 108.365C1015.29 108.556 1019.14 108.556 1023 108.939C1027.63 109.322 1032.77 109.322 1037.91 110.087C1041.77 110.661 1045.88 110.087 1050 109.705C1053.6 109.705 1056.42 109.705 1059.25 110.279C1054.62 114.68 1053.6 116.976 1053.34 122.908V135.92C1052.31 138.982 1052.31 142.044 1052.05 145.297C1052.05 146.828 1051.54 148.358 1051.54 149.507V172.278C1051.54 174.574 1051.28 176.87 1051.02 178.784C1050.25 187.969 1050 197.728 1050 206.913C1050 211.697 1051.02 216.098 1056.42 219.926C1053.85 219.926 1053.34 220.308 1052.05 220.308C1044.08 219.926 1036.11 219.734 1027.88 219.734C1024.28 219.734 1020.69 218.012 1016.83 218.777C1015.54 218.969 1015.03 217.821 1015.03 217.247C1015.03 215.716 1015.29 214.759 1015.29 213.802C1015.03 211.889 1015.29 210.166 1014.51 208.827C1012.71 206.339 1012.71 203.469 1013.23 200.599C1014.51 197.728 1014.26 194.093 1014.51 191.031C1014.51 190.457 1014.26 189.883 1014.26 189.5C1015.29 180.698 1014.51 173.043 1015.03 164.432C1015.29 161.179 1014.51 158.309 1014.26 154.865C1014.26 154.29 1013.23 153.716 1014.26 152.951C1015.54 150.463 1015.54 148.167 1015.54 145.679C1016.57 137.068 1016.57 129.223 1016.83 120.803C1016.83 116.402 1015.29 112.766 1010.66 110.087C1010.14 110.087 1010.14 109.705 1009.89 108.939C1010.14 108.939 1010.66 108.365 1011.69 108.365ZM1040.23 128.075C1039.2 128.075 1038.68 128.457 1037.91 129.223C1037.91 129.797 1038.68 130.945 1039.2 130.945C1040.23 131.136 1041 130.562 1041.25 129.797C1041.77 129.223 1041 128.457 1040.23 128.075ZM995.488 141.47C997.545 141.852 999.859 142.235 1001.92 143.192C1002.69 143.575 1004.23 143.957 1006.8 145.679C1003.2 146.445 1001.92 146.445 999.859 147.019C997.288 147.593 994.974 149.315 994.202 151.994C993.431 154.865 992.66 158.309 992.146 161.179C991.631 168.259 990.86 175.148 990.86 182.611C991.631 189.691 990.86 196.771 990.86 203.469C990.86 205.957 990.86 208.253 991.888 210.166C993.431 213.611 995.488 215.524 1000.37 215.716C1000.63 215.716 1001.92 216.098 1002.43 216.098C1002.17 217.055 1002.17 217.438 1001.92 217.438C996.516 220.882 990.603 221.456 984.689 220.882C973.376 219.16 964.891 214.185 959.492 205.574C955.892 198.876 954.093 191.605 953.836 184.333C953.836 182.994 953.836 181.463 954.093 180.315C954.607 177.636 955.378 175.148 954.093 172.278C953.836 171.704 954.093 170.747 954.607 169.599L957.178 162.327C957.692 160.988 958.206 159.84 958.978 158.5C961.035 155.63 963.092 152.951 965.663 150.081C970.291 145.679 976.204 142.235 984.175 142.044C986.746 141.852 988.546 141.47 991.631 141.47C992.66 141.47 994.202 141.278 995.488 141.47Z" fill="#0A0A0A"/>
<path id="B" d="M334.748 122.088C328.969 122.272 322.9 122.826 317.41 123.38C314.231 123.564 313.364 124.118 313.364 126.148C313.364 130.208 314.231 134.269 314.52 138.329C315.098 144.05 315.387 144.42 324.345 144.05H324.923C327.813 144.235 328.68 144.789 328.969 146.45C328.969 147.372 329.547 148.295 329.547 149.403L331.859 171.55L335.326 201.818L338.216 227.656C339.083 234.485 338.505 234.116 329.547 234.854C326.657 235.038 325.79 235.592 325.79 237.438L326.657 249.065C326.657 250.726 326.946 252.202 327.524 253.494C327.813 254.971 328.969 255.709 331.859 255.709H336.193L390.521 252.941C410.46 247.589 432.134 245.005 453.229 245.558C458.142 243.713 461.61 241.129 464.499 238.176C464.788 233.193 465.655 228.763 465.944 223.78C466.522 214.737 466.522 205.14 465.655 196.096C464.21 194.066 461.61 192.221 459.009 190.375C453.807 187.422 447.739 184.838 440.514 183.731C439.647 183.731 438.78 183.731 438.491 183.546L436.179 182.07C436.179 182.07 437.335 181.147 437.624 180.778L442.537 179.117C451.206 175.795 457.275 170.996 460.165 164.721C463.343 155.678 462.476 147.003 458.142 138.329C453.229 128.363 442.537 122.457 426.932 120.242C419.419 118.95 411.616 118.766 404.103 118.95L334.748 122.088ZM398.034 141.467C398.901 141.651 399.768 141.836 400.057 142.205C403.814 143.497 406.126 145.158 406.993 147.372C409.883 153.463 411.038 159.369 409.883 165.459C409.016 170.996 403.814 174.134 395.434 175.056L387.342 175.61C385.319 175.61 384.164 174.872 384.164 173.58C383.297 168.781 383.008 163.798 382.141 159L380.696 143.681C380.696 142.758 381.274 141.651 383.008 141.467C388.209 140.728 393.411 140.728 398.034 141.467ZM388.209 195.727C395.434 194.435 402.658 194.066 409.305 196.835C413.639 198.311 415.662 201.449 416.818 204.401C418.552 209.569 419.419 214.737 418.841 220.089C418.552 226.733 410.46 230.978 401.213 231.532L393.7 231.716C391.388 231.716 390.521 230.978 390.232 229.686C389.654 227.102 389.654 224.888 389.365 222.488L387.053 201.449C386.475 199.787 386.475 198.496 387.053 197.019C387.053 196.465 387.631 195.727 388.209 195.727Z" fill="#0A0A0A"/>
</g>
</g>
</g>
</svg>
