<svg width="155" height="300" viewBox="0 0 155 300" fill="none" xmlns="http://www.w3.org/2000/svg">
<rect width="155" height="300" fill="#E5E5E5"/>
<g id="6 &#194;&#183; N&#195;&#186;meros (fecha)">
<path d="M-665.534 -373C-665.534 -374.105 -664.639 -375 -663.534 -375H1525.57C1526.67 -375 1527.57 -374.105 1527.57 -373V808C1527.57 809.105 1526.67 810 1525.57 810H-663.534C-664.639 810 -665.534 809.105 -665.534 808V-373Z" fill="#1A1A1A"/>
<path d="M-663.534 -375V-374H1525.57V-375V-376H-663.534V-375ZM1527.57 -373H1526.57V808H1527.57H1528.57V-373H1527.57ZM1525.57 810V809H-663.534V810V811H1525.57V810ZM-665.534 808H-664.534V-373H-665.534H-666.534V808H-665.534ZM-663.534 810V809C-664.086 809 -664.534 808.552 -664.534 808H-665.534H-666.534C-666.534 809.657 -665.191 811 -663.534 811V810ZM1527.57 808H1526.57C1526.57 808.552 1526.12 809 1525.57 809V810V811C1527.22 811 1528.57 809.657 1528.57 808H1527.57ZM1525.57 -375V-374C1526.12 -374 1526.57 -373.552 1526.57 -373H1527.57H1528.57C1528.57 -374.657 1527.22 -376 1525.57 -376V-375ZM-663.534 -375V-376C-665.191 -376 -666.534 -374.657 -666.534 -373H-665.534H-664.534C-664.534 -373.552 -664.086 -374 -663.534 -374V-375Z" fill="black" fill-opacity="0.1"/>
<g id="numero/3">
<path id="3" d="M63.4574 72.62C55.4074 74.92 48.0474 79.29 42.2974 85.96C36.0874 94.01 34.9374 102.06 37.6974 111.72C39.5374 118.85 45.0574 123.45 51.7274 123.91C59.3174 123.91 64.8374 120.69 68.5174 114.25C71.0474 108.5 71.9674 102.06 69.4374 95.85L67.1374 89.64C66.6774 87.8 67.1374 85.5 68.5174 84.12C69.4374 82.74 70.5874 81.36 72.1974 79.98C77.7174 76.3 86.2274 78.14 89.2174 84.35C90.5974 86.88 91.2874 89.64 91.5174 92.4C92.6674 99.76 92.6674 107.12 91.2874 114.48C89.2174 124.14 84.8474 132.42 77.0274 138.86C72.8874 142.54 68.7474 145.53 64.3774 148.75C59.7774 152.43 59.3174 153.35 62.0774 158.64C62.0774 158.87 62.3074 159.33 62.9974 159.79C64.1474 161.63 65.7574 162.09 67.5974 160.94L73.8074 155.88C81.1674 150.59 89.9074 153.35 93.1274 161.63L94.2774 166.46C94.9674 171.06 95.1974 175.43 94.9674 180.03C94.2774 185.32 93.5874 190.38 92.6674 195.21C92.2074 200.96 89.6774 205.79 87.1474 210.85C84.8474 216.14 80.7074 219.59 75.8774 223.04C69.4374 226.49 58.8574 226.72 52.4174 219.13C48.7374 214.99 48.7374 211.54 52.8774 207.4L55.4074 204.87C58.8574 202.11 60.4674 198.66 62.0774 194.75C64.8374 187.16 60.6974 180.03 54.9474 177.04C44.3674 170.83 29.6474 176.58 25.9674 188.08C23.2074 196.59 23.2074 205.56 26.8874 213.61C27.8074 215.22 28.7274 216.83 29.6474 218.67C34.9374 224.19 41.1474 228.33 48.7374 231.09C62.0774 235.46 75.8774 235.46 89.6774 232.01C101.177 229.25 110.377 223.5 117.967 214.53C126.707 204.41 130.617 192.22 130.387 178.65C130.387 168.76 126.247 160.25 117.967 154.27C110.377 148.98 103.017 145.53 94.0474 144.61C92.4374 144.38 91.2874 144.38 88.7574 143.92C91.5174 141.85 94.0474 141.85 95.8874 141.16C101.867 140.01 106.927 137.25 111.757 134.49C117.277 131.27 121.647 126.67 123.947 120.69C127.627 112.87 128.777 104.59 126.937 96.08L126.017 93.09C122.567 84.12 116.357 77.91 107.617 74.46C93.1274 68.25 78.4074 67.79 63.4574 72.62Z" fill="white"/>
</g>
</g>
</svg>
